<svg width="195" height="45" viewBox="0 0 195 45" fill="none" xmlns="http://www.w3.org/2000/svg">
<path d="M4.76692 45C2.13853 45 0 42.7652 0 40.0185V4.98149C0 2.2348 2.13853 0 4.76692 0H190.234C192.862 0 195 2.2348 195 4.98149V40.0185C195 42.7652 192.862 45 190.234 45H4.76692Z" fill="#E6E7E8"/>
<path d="M189.957 43H5.04313C3.36219 43 2 41.5862 2 39.8425V5.15753C2 3.4134 3.36262 2 5.04313 2H189.957C191.638 2 193 3.41384 193 5.15753V39.842C193 41.5862 191.638 43 189.957 43Z" stroke="#414042" stroke-miterlimit="10"/>
<path d="M145 2L145 43" stroke="#414042" stroke-width="0.680275" stroke-miterlimit="3.8637"/>
<path d="M187.031 35.2324H172.39V38.1904H187.031V35.2324Z" fill="#EC2227"/>
<path d="M187.031 32.5581H172.396V35.3467H187.031V32.5581Z" fill="#1067B2"/>
<path d="M187.031 30H172.39V38.0477H187.031V30Z" stroke="#010101" stroke-width="0.214424" stroke-miterlimit="3.8637"/>
<path d="M151.518 37.6309C151.232 37.6309 151 37.3989 151 37.1133V31.6321C151 31.3461 151.232 31.1145 151.518 31.1145H153.667C155.117 31.1145 156.054 31.8276 156.054 32.9314C156.054 33.9074 155.509 34.5781 154.555 34.829L156.091 36.7681C156.268 36.9924 156.231 37.3183 156.006 37.4954C155.782 37.6729 155.457 37.6347 155.279 37.4109L153.322 34.9383H152.036V37.1129C152.035 37.3989 151.803 37.6309 151.518 37.6309ZM152.035 33.9031H153.635C155.018 33.9031 155.018 33.1973 155.018 32.9314C155.018 32.2063 153.984 32.1497 153.667 32.1497H152.035V33.9031ZM168.045 37.5957C167.469 37.5957 166.504 37.5957 165.508 36.7372C165.292 36.5503 165.268 36.2235 165.454 36.0069C165.641 35.79 165.968 35.7664 166.185 35.9529C166.889 36.5605 167.53 36.5606 168.045 36.5606C168.319 36.5606 168.851 36.4302 169.125 36.1502C169.245 36.0271 169.3 35.892 169.297 35.7248C169.285 35.2256 168.751 35.0219 167.936 34.7681C167.846 34.7402 167.758 34.7128 167.674 34.6853C166.327 34.2355 165.622 33.6476 165.515 32.8877C165.444 32.41 165.571 31.9447 165.87 31.5793C166.109 31.2882 166.565 30.9323 167.382 30.8907C168.779 30.8212 169.77 31.8216 169.812 31.8641C170.011 32.0691 170.007 32.3967 169.802 32.5961C169.598 32.7955 169.27 32.7916 169.072 32.5879C169.057 32.5738 168.357 31.8722 167.436 31.9246C167.088 31.9421 166.823 32.0502 166.671 32.2359C166.559 32.3722 166.513 32.5511 166.54 32.7393C166.557 32.8581 166.711 33.2711 167.999 33.7016C168.076 33.7265 168.159 33.7522 168.244 33.7792C169.064 34.0344 170.303 34.4203 170.332 35.7021C170.341 36.148 170.179 36.5533 169.864 36.8744C169.305 37.4452 168.43 37.5957 168.045 37.5957ZM160.675 37.5957C159.387 37.5957 158.087 36.7587 158.087 34.8881V31.6321C158.087 31.3461 158.319 31.1145 158.605 31.1145C158.891 31.1145 159.122 31.3461 159.122 31.6321V34.8881C159.122 36.44 160.311 36.5606 160.675 36.5606C161.438 36.5606 162.289 35.9049 162.289 34.964V31.6119C162.289 31.3259 162.521 31.0943 162.807 31.0943C163.093 31.0943 163.324 31.3259 163.324 31.6119V34.964C163.324 36.5383 161.954 37.5957 160.675 37.5957Z" fill="#010101"/>
<path d="M37.392 32.456V33H33.616L32.688 28.936H27.344L26.384 33H22.608V32.456L27.824 12.008H32.208L37.392 32.456ZM31.92 25.608L30 17.384L28.112 25.608H31.92ZM49.2968 33H45.5848V17C45.0088 17.192 44.3794 17.288 43.6968 17.288H41.7448V13.896H43.6328C44.2514 13.896 44.7314 13.736 45.0728 13.416C45.4141 13.0747 45.5848 12.6053 45.5848 12.008H49.2968V33ZM67.4203 29.608V33H55.9003V29.576L60.2523 24.136C61.4469 22.6427 62.2683 21.448 62.7163 20.552C63.1643 19.6347 63.3883 18.696 63.3883 17.736V17.416C63.3883 16.648 63.1963 16.0613 62.8123 15.656C62.4496 15.2293 61.9269 15.016 61.2443 15.016C59.8149 15.016 59.1003 15.8373 59.1003 17.48V18.344H55.4523V17.48C55.4523 15.5813 55.9536 14.1307 56.9563 13.128C57.9803 12.1253 59.4309 11.624 61.3083 11.624C63.1216 11.624 64.5296 12.1253 65.5323 13.128C66.5349 14.1093 67.0363 15.496 67.0363 17.288V17.608C67.0363 18.9093 66.7483 20.168 66.1723 21.384C65.6176 22.5787 64.5723 24.136 63.0363 26.056L60.1883 29.608H67.4203ZM79.7317 20.136C81.1397 20.3067 82.2384 20.84 83.0277 21.736C83.8384 22.6107 84.2437 23.7413 84.2437 25.128V27.784C84.2437 29.4693 83.6891 30.824 82.5797 31.848C81.4704 32.872 80.0091 33.384 78.1957 33.384C76.2971 33.384 74.8144 32.8827 73.7477 31.88C72.6811 30.856 72.1477 29.448 72.1477 27.656V26.696H75.7957V27.592C75.7957 28.3387 76.0091 28.9253 76.4357 29.352C76.8624 29.7787 77.4384 29.992 78.1637 29.992C78.9104 29.992 79.4971 29.768 79.9237 29.32C80.3504 28.8507 80.5637 28.2107 80.5637 27.4V25.704C80.5637 24.1467 79.6891 23.368 77.9397 23.368H75.1237V20.456L79.5077 15.4H72.6277V12.008H83.9237V15.4L79.7317 20.136ZM103.973 32.456V33H100.197L99.2693 28.936H93.9253L92.9653 33H89.1893V32.456L94.4053 12.008H98.7893L103.973 32.456ZM98.5013 25.608L96.5813 17.384L94.6933 25.608H98.5013ZM123.142 32.456V33H119.366L118.438 28.936H113.094L112.134 33H108.358V32.456L113.574 12.008H117.958L123.142 32.456ZM117.67 25.608L115.75 17.384L113.862 25.608H117.67Z" fill="#010101"/>
<path d="M157.193 22.252C155.961 22.252 154.967 21.909 154.211 21.223C153.469 20.537 153.098 19.634 153.098 18.514V11.731C153.098 10.597 153.469 9.694 154.211 9.022C154.953 8.336 155.947 7.993 157.193 7.993C158.439 7.993 159.433 8.336 160.175 9.022C160.917 9.694 161.288 10.597 161.288 11.731V18.514C161.288 19.648 160.917 20.558 160.175 21.244C159.433 21.916 158.439 22.252 157.193 22.252ZM157.193 20.026C157.711 20.026 158.117 19.872 158.411 19.564C158.719 19.256 158.873 18.843 158.873 18.325V11.941C158.873 11.409 158.719 10.989 158.411 10.681C158.117 10.373 157.711 10.219 157.193 10.219C156.689 10.219 156.283 10.373 155.975 10.681C155.681 10.989 155.534 11.409 155.534 11.941V18.325C155.534 18.843 155.681 19.256 155.975 19.564C156.283 19.872 156.689 20.026 157.193 20.026ZM168.497 22.252C167.265 22.252 166.271 21.909 165.515 21.223C164.773 20.537 164.402 19.634 164.402 18.514V11.731C164.402 10.597 164.773 9.694 165.515 9.022C166.257 8.336 167.251 7.993 168.497 7.993C169.743 7.993 170.737 8.336 171.479 9.022C172.221 9.694 172.592 10.597 172.592 11.731V18.514C172.592 19.648 172.221 20.558 171.479 21.244C170.737 21.916 169.743 22.252 168.497 22.252ZM168.497 20.026C169.015 20.026 169.421 19.872 169.715 19.564C170.023 19.256 170.177 18.843 170.177 18.325V11.941C170.177 11.409 170.023 10.989 169.715 10.681C169.421 10.373 169.015 10.219 168.497 10.219C167.993 10.219 167.587 10.373 167.279 10.681C166.985 10.989 166.838 11.409 166.838 11.941V18.325C166.838 18.843 166.985 19.256 167.279 19.564C167.587 19.872 167.993 20.026 168.497 20.026ZM179.801 22.252C178.569 22.252 177.575 21.909 176.819 21.223C176.077 20.537 175.706 19.634 175.706 18.514V11.731C175.706 10.597 176.077 9.694 176.819 9.022C177.561 8.336 178.555 7.993 179.801 7.993C181.047 7.993 182.041 8.336 182.783 9.022C183.525 9.694 183.896 10.597 183.896 11.731V18.514C183.896 19.648 183.525 20.558 182.783 21.244C182.041 21.916 181.047 22.252 179.801 22.252ZM179.801 20.026C180.319 20.026 180.725 19.872 181.019 19.564C181.327 19.256 181.481 18.843 181.481 18.325V11.941C181.481 11.409 181.327 10.989 181.019 10.681C180.725 10.373 180.319 10.219 179.801 10.219C179.297 10.219 178.891 10.373 178.583 10.681C178.289 10.989 178.142 11.409 178.142 11.941V18.325C178.142 18.843 178.289 19.256 178.583 19.564C178.891 19.872 179.297 20.026 179.801 20.026Z" fill="#010101"/>
</svg>
