<svg width="51" height="49" viewBox="0 0 51 49" fill="none" xmlns="http://www.w3.org/2000/svg">
<path d="M8.28484 18.6846C8.28484 18.6846 4 24.7649 4 27.0829C4 29.4008 5.91961 31.282 8.28484 31.282C10.6501 31.282 12.5697 29.4008 12.5697 27.0829C12.5697 24.7649 8.28484 18.6846 8.28484 18.6846Z" fill="white" fill-opacity="0.5"/>
<path d="M43.1806 24.462C45.2031 21.2259 44.8146 16.9483 41.958 14.1489L35.9021 8.2141C34.2339 6.57923 31.5259 6.56803 29.8462 8.2141L29.652 8.40446C25.8699 5.69461 19.117 2.55924 9.63318 4.72041L10.6044 8.80757C18.0658 7.10552 23.4361 9.33387 26.5783 11.4166L23.7789 14.1601L25.6642 16.0077C24.7387 18.5496 25.6871 21.9649 28.3151 24.5292C30.9546 27.1159 34.4281 28.0453 37.0333 27.1383L38.9301 28.9971L40.267 27.6869C41.7524 29.7361 42.5751 32.1548 42.5751 34.7191V45.9952H46.8599V34.7079C46.8485 30.9343 45.5459 27.3622 43.1806 24.462ZM35.8793 23.0399C35.0452 23.8909 33.0113 23.2078 31.3545 21.573C29.6862 19.9381 28.9892 17.9561 29.8348 17.1163C30.6689 16.2989 32.7028 16.9483 34.3596 18.5832C36.0392 20.2181 36.7134 22.2225 35.8793 23.0399Z" fill="white" fill-opacity="0.5"/>
</svg>
