<svg width="50" height="50" viewBox="0 0 50 50" fill="none" xmlns="http://www.w3.org/2000/svg">
<g opacity="0.5" clip-path="url(#clip0_60_498)">
<path d="M48.5 41.5L41.5 34.5C43.75 31 45 27 45 22.5C45 10 35 0 22.5 0C10 0 0 10 0 22.5C0 35 10 45 22.5 45C27 45 31 43.75 34.5 41.5L41.5 48.5C43.5 50.5 46.5 50.5 48.5 48.5C50.5 46.5 50.5 43.5 48.5 41.5ZM22.5 40C12.75 40 5 32.25 5 22.5C5 12.75 12.75 5 22.5 5C32.25 5 40 12.75 40 22.5C40 32.25 32.25 40 22.5 40Z" fill="white"/>
</g>
<defs>
<clipPath id="clip0_60_498">
<rect width="50" height="50" fill="white"/>
</clipPath>
</defs>
</svg>
