<svg width="51" height="51" viewBox="0 0 51 51" fill="none" xmlns="http://www.w3.org/2000/svg">
<path d="M45.7379 19.2656C45.53 19.0901 45.2418 19.0397 44.9856 19.1344L36.4887 22.2791L31.4865 18.2328L32.5432 11.9439L41.0399 8.79875C41.2964 8.70384 41.4798 8.47875 41.5189 8.21163C41.5581 7.94452 41.4457 7.67842 41.2271 7.51627C37.8876 5.03742 33.3724 4.24223 29.1682 5.79879C22.6357 8.21675 19.3314 15.3909 21.7869 21.8232C21.9351 22.2121 21.8389 22.6504 21.5404 22.9443L6.42333 37.8306C4.52555 39.6991 4.52555 42.7296 6.42333 44.5986C7.37285 45.5328 8.61632 46 9.86021 46C11.1043 46 12.3473 45.5328 13.2969 44.5986L28.5992 29.5301C28.8855 29.2483 29.3095 29.1482 29.6945 29.272C32.329 30.1212 35.2635 30.1275 38.06 29.0925C42.2644 27.5359 45.1298 24.0089 45.9842 19.9782C46.04 19.7142 45.9455 19.4413 45.7379 19.2656ZM9.86041 43.0462C8.83283 43.0462 7.99947 42.2264 7.99947 41.2145C7.99947 40.2028 8.83283 39.3828 9.86041 39.3828C10.887 39.3828 11.7195 40.2028 11.7195 41.2145C11.7195 42.2264 10.887 43.0462 9.86041 43.0462Z" fill="white" fill-opacity="0.5"/>
</svg>
