<svg width="50" height="50" viewBox="0 0 50 50" fill="none" xmlns="http://www.w3.org/2000/svg">
<path d="M45.2379 18.7656C45.03 18.5901 44.7418 18.5397 44.4856 18.6344L35.9887 21.7791L30.9865 17.7328L32.0432 11.4439L40.5399 8.29875C40.7964 8.20384 40.9798 7.97875 41.0189 7.71163C41.0581 7.44452 40.9457 7.17842 40.7271 7.01627C37.3876 4.53742 32.8724 3.74223 28.6682 5.29879C22.1357 7.71675 18.8314 14.8909 21.2869 21.3232C21.4351 21.7121 21.3389 22.1504 21.0404 22.4443L5.92333 37.3306C4.02555 39.1991 4.02555 42.2296 5.92333 44.0986C6.87285 45.0328 8.11632 45.5 9.36021 45.5C10.6043 45.5 11.8473 45.0328 12.7969 44.0986L28.0992 29.0301C28.3855 28.7483 28.8095 28.6482 29.1945 28.772C31.829 29.6212 34.7635 29.6275 37.56 28.5925C41.7644 27.0359 44.6298 23.5089 45.4842 19.4782C45.54 19.2142 45.4455 18.9413 45.2379 18.7656ZM9.36041 42.5462C8.33283 42.5462 7.49947 41.7264 7.49947 40.7145C7.49947 39.7028 8.33283 38.8828 9.36041 38.8828C10.387 38.8828 11.2195 39.7028 11.2195 40.7145C11.2195 41.7264 10.387 42.5462 9.36041 42.5462Z" fill="white" fill-opacity="0.5"/>
</svg>
