<svg width="195" height="45" viewBox="0 0 195 45" fill="none" xmlns="http://www.w3.org/2000/svg">
<path d="M4.76692 45C2.13853 45 0 42.7652 0 40.0185V4.98149C0 2.2348 2.13853 0 4.76692 0H190.234C192.862 0 195 2.2348 195 4.98149V40.0185C195 42.7652 192.862 45 190.234 45H4.76692Z" fill="#E6E7E8"/>
<path d="M2 5.11947C2 3.39663 3.39663 2 5.11947 2H23V43H5.11947C3.39663 43 2 41.6034 2 39.8805V5.11947Z" fill="#0F4AC2"/>
<path d="M19.4967 14.134H5.65405V17.8964H19.4967V14.134Z" fill="#FFE633"/>
<path d="M19.4967 10.3711H5.65405V14.1334H19.4967V10.3711Z" fill="#56CCFF"/>
<path d="M6.68264 27.4907V32.7033C6.68264 34.6759 7.50564 35.5119 8.61107 35.5119C9.83939 35.5119 10.6255 34.6498 10.6255 32.7033V27.4907H11.7064V32.6249C11.7064 35.3291 10.3676 36.4396 8.57426 36.4396C6.87923 36.4396 5.60181 35.4075 5.60181 32.6771V27.4907H6.68264Z" fill="white"/>
<path d="M14.4821 33.5262L13.6223 36.2958H12.5168L15.3296 27.4907H16.6193L19.4444 36.2958H18.3021L17.4177 33.5262H14.4821ZM17.1966 32.6379L16.3859 30.1035C16.2017 29.5287 16.0788 29.0062 15.956 28.4967H15.9315C15.8087 29.0192 15.6735 29.5548 15.5139 30.0905L14.7032 32.638L17.1966 32.6379Z" fill="white"/>
<path d="M189.957 43H5.04313C3.36219 43 2 41.5862 2 39.8425V5.15753C2 3.4134 3.36262 2 5.04313 2H189.957C191.638 2 193 3.41384 193 5.15753V39.842C193 41.5862 191.638 43 189.957 43Z" stroke="#414042" stroke-miterlimit="10"/>
</svg>
