<svg width="195" height="45" viewBox="0 0 195 45" fill="none" xmlns="http://www.w3.org/2000/svg">
<path d="M4.76692 45C2.13853 45 0 42.7652 0 40.0185V4.98149C0 2.2348 2.13853 0 4.76692 0H190.234C192.862 0 195 2.2348 195 4.98149V40.0185C195 42.7652 192.862 45 190.234 45H4.76692Z" fill="#E6E7E8"/>
<path d="M189.957 43H5.04313C3.36219 43 2 41.5862 2 39.8425V5.15753C2 3.4134 3.36262 2 5.04313 2H189.957C191.638 2 193 3.41384 193 5.15753V39.842C193 41.5862 191.638 43 189.957 43Z" stroke="#414042" stroke-miterlimit="10"/>
<path d="M8.00548 15.5398C8.00548 13.8777 8.00744 12.2157 8.00196 10.5537C8.00157 10.4141 8.03443 10.3564 8.17686 10.311C9.05803 10.0307 9.9208 10.1059 10.7871 10.3847C11.3885 10.5781 11.9672 10.8309 12.5741 11.01C13.2236 11.2012 13.8688 11.2372 14.5418 11.1593C15.6558 11.0306 16.7221 10.7235 17.7891 10.406C19.2239 9.97916 20.6736 9.86053 22.1523 10.187C23.0851 10.3928 23.9866 10.6817 24.867 11.0449C24.9851 11.0938 24.9996 11.1601 24.9992 11.2655C24.9961 11.8928 24.9969 12.5205 24.9969 13.1481C24.9969 15.8716 24.9961 18.5951 25 21.3186C25.0004 21.4947 24.9527 21.5129 24.7989 21.4489C23.8477 21.0535 22.8734 20.7255 21.8549 20.5495C20.9827 20.3987 20.1078 20.3723 19.2274 20.5103C18.3228 20.6522 17.4588 20.9441 16.5808 21.1829C15.9141 21.3644 15.2364 21.4822 14.5524 21.5854C13.4435 21.7525 12.4379 21.4349 11.4358 21.0422C10.7918 20.7898 10.1376 20.5708 9.43248 20.5623C9.01225 20.5572 8.59905 20.5987 8.19995 20.7375C8.09078 20.7755 7.99961 20.803 8 20.6243C8.00352 18.9297 8.00235 17.2347 8.00235 15.5398C8.00313 15.5398 8.00431 15.5398 8.00548 15.5398Z" fill="#0BA6DF"/>
<path d="M17.6118 12.9797C18.6221 12.9626 19.4618 13.8186 19.452 14.8146C19.443 15.7745 18.6225 16.6798 17.5031 16.6305C16.5565 16.5891 15.7474 15.8257 15.7309 14.8158C15.7145 13.7803 16.6031 12.939 17.6118 12.9797Z" fill="#D0DD45"/>
<path d="M21.1967 16.4164C21.3611 16.3304 21.4252 16.1629 21.5219 16.0225C21.5876 15.9264 21.6459 15.8252 21.7085 15.7271C21.7516 15.6597 21.7884 15.5278 21.8701 15.5705C21.9766 15.6255 21.9014 15.7422 21.8564 15.8233C21.6631 16.1706 21.4867 16.5285 21.169 16.8537C21.4088 16.7929 21.5109 16.6328 21.6565 16.5343C21.7148 16.4951 21.7833 16.4133 21.8369 16.4649C21.8893 16.5153 21.8431 16.6134 21.7946 16.6727C21.6553 16.8437 21.5102 17.0092 21.327 17.1383C21.286 17.1674 21.2562 17.2124 21.1975 17.2755C21.3306 17.2624 21.4112 17.2027 21.4972 17.1596C21.5387 17.1387 21.5822 17.1123 21.6209 17.155C21.6659 17.2042 21.6381 17.255 21.6029 17.2934C21.5019 17.4043 21.381 17.4915 21.2609 17.5807C21.2124 17.6167 21.0426 17.6357 21.2147 17.7563C21.2691 17.7943 21.1647 17.84 21.1204 17.8664C21.0457 17.911 20.9166 17.8962 20.9545 18.0501C20.9663 18.0971 20.8982 18.1122 20.8544 18.1242C20.78 18.1444 20.7045 18.1393 20.7487 18.27C20.7796 18.3607 20.6611 18.3522 20.5942 18.3634C20.5386 18.3727 20.4404 18.3471 20.5194 18.4634C20.5464 18.503 20.4956 18.5348 20.4615 18.5487C20.0256 18.7251 19.571 18.8026 19.0776 18.8224C19.1218 18.6984 19.2165 18.6898 19.2783 18.6883C19.4512 18.6836 19.5929 18.5739 19.7682 18.5728C19.9658 18.5712 20.0479 18.3987 20.107 18.2525C20.1567 18.1292 20.2624 18.0858 20.3469 18.0308C20.514 17.9226 20.5938 17.7431 20.7389 17.6159C20.8473 17.521 20.9804 17.3546 20.8814 17.1569C20.8579 17.11 20.8559 17.0588 20.8994 17.0131C20.9393 16.9712 20.9894 16.9169 20.9205 16.8665C20.8583 16.8208 20.7882 16.8301 20.7221 16.8793C20.5593 17.0011 20.4193 17.1476 20.3034 17.3097C20.2029 17.4504 20.0792 17.5764 20.0069 17.7381C19.9685 17.8237 19.8914 17.8703 19.7975 17.8982C19.4978 17.987 19.2427 18.1509 19.0204 18.3669C18.9226 18.4619 18.8138 18.5006 18.6726 18.5103C18.1522 18.5464 17.6689 18.717 17.208 18.9519C17.1712 18.9705 17.0632 19 17.1873 19.0601C17.1982 19.0655 17.2123 19.0744 17.2155 19.0849C17.2366 19.1535 17.0867 19.226 17.1783 19.2601C17.2921 19.3024 17.4322 19.2791 17.561 19.2764C17.7026 19.2733 17.8442 19.2605 17.9859 19.2539C18.0313 19.2516 18.0825 19.2477 18.108 19.2958C18.1467 19.3691 18.0371 19.3551 18.0305 19.4082C18.1107 19.4617 18.1667 19.3908 18.2297 19.376C18.3545 19.347 18.4621 19.2675 18.5998 19.2694C18.662 19.2702 18.7309 19.2182 18.7493 19.157C18.797 18.9953 18.925 18.9911 19.0451 19.0112C19.3237 19.0585 19.6038 19.0539 19.884 19.0577C19.9783 19.0593 20.0914 19.0461 20.1078 19.1574C20.1242 19.2671 20.0112 19.3365 19.9255 19.3524C19.7737 19.3807 19.6277 19.3884 19.5663 19.5629C19.5596 19.5819 19.5095 19.5962 19.4798 19.5959C19.132 19.5908 18.8311 19.7881 18.4918 19.8203C18.1436 19.8533 17.7942 19.851 17.4451 19.8513C17.3344 19.8513 17.2233 19.8513 17.1125 19.8494C17.0668 19.8486 17.0143 19.8436 16.9905 19.8017C16.9627 19.7529 17.0108 19.7203 17.0359 19.6842C17.0859 19.6118 17.2288 19.5641 17.1908 19.4827C17.1395 19.3714 17.0042 19.4466 16.9075 19.4524C16.7522 19.4617 16.5835 19.3764 16.4474 19.523C16.3758 19.2605 16.4372 19.1489 16.7158 19.0236C16.8582 18.9597 17.0018 18.8992 17.145 18.8372C17.1869 18.8189 17.2338 18.8015 17.2354 18.7472C17.237 18.6906 17.1842 18.6798 17.1466 18.6565C16.9169 18.5169 16.6692 18.4626 16.4016 18.5018C16.2952 18.5173 16.211 18.47 16.1336 18.4072C15.9876 18.289 15.8448 18.1672 15.6973 18.0509C15.6315 17.999 15.5572 17.916 15.4879 17.9176C15.2148 17.9226 15.1389 17.7051 15.02 17.5407C14.8451 17.2992 14.66 17.0677 14.4299 16.8751C14.3908 16.8421 14.347 16.8138 14.3028 16.7874C14.2601 16.7619 14.2143 16.7599 14.1775 16.7991C14.1365 16.8425 14.1611 16.8817 14.1909 16.9193C14.2351 16.9751 14.2985 17.0243 14.1885 17.0856C14.1071 17.1309 14.1846 17.1682 14.212 17.2042C14.2828 17.298 14.4409 17.3418 14.383 17.5101C14.3736 17.5368 14.4174 17.5675 14.4499 17.5694C14.6236 17.581 14.68 17.7032 14.714 17.8431C14.757 18.0203 14.8803 18.1339 15.0212 18.2324C15.0728 18.2684 15.1464 18.2719 15.0849 18.3696C15.0305 18.4564 15.1346 18.4762 15.1831 18.4995C15.4414 18.6235 15.7028 18.7402 15.9986 18.7484C16.0815 18.7507 16.1672 18.7569 16.2529 18.8077C16.1707 18.9131 16.0549 18.9077 15.9532 18.898C15.5134 18.8569 15.1014 18.7298 14.7222 18.4979C14.6111 18.4301 14.5857 18.2754 14.4221 18.2471C14.3806 18.2397 14.338 18.0587 14.2355 17.9858C14.1897 17.9532 14.2961 17.9176 14.2981 17.8648C14.2386 17.8133 14.1623 17.8241 14.0934 17.8082C14.041 17.7962 13.9604 17.7586 13.9886 17.7198C14.1102 17.5535 13.9436 17.5527 13.8735 17.4954C13.7984 17.4337 13.7237 17.3709 13.6497 17.3077C13.5492 17.2217 13.3907 17.1526 13.5945 17.0015C13.6607 16.9522 13.6165 16.865 13.5515 16.8216C13.44 16.7475 13.3754 16.632 13.2854 16.5401C13.2318 16.4851 13.1829 16.4195 13.235 16.3253C13.3699 16.368 13.4642 16.468 13.5699 16.551C13.6086 16.5812 13.6478 16.6467 13.6998 16.6064C13.7601 16.5595 13.7119 16.4936 13.6794 16.4513C13.5092 16.2292 13.4177 15.9652 13.278 15.7271C13.2647 15.7046 13.2483 15.6837 13.2389 15.6601C13.2036 15.5717 13.134 15.4654 13.2526 15.4034C13.3668 15.3437 13.3801 15.4875 13.4228 15.5406C13.5065 15.6449 13.5585 15.7736 13.627 15.8899C13.6622 15.9493 13.701 16.045 13.7788 16.0066C13.8426 15.9752 13.7863 15.8919 13.7659 15.8318C13.7061 15.6542 13.6485 15.4759 13.5898 15.2979C13.5703 15.239 13.5695 15.1836 13.6352 15.1177C13.8254 15.341 13.9025 15.6186 14.0578 15.8694C14.0578 15.7515 14.0559 15.6333 14.059 15.5154C14.0602 15.4674 14.0375 15.3918 14.102 15.3832C14.1807 15.3724 14.1768 15.4581 14.1912 15.5085C14.2319 15.6515 14.264 15.7965 14.3031 15.94C14.4675 16.5382 14.7578 17.077 15.2187 17.4888C15.7568 17.9695 16.4016 18.2676 17.1313 18.3673C17.2968 18.3898 17.4886 18.3506 17.6193 18.5099C17.6318 18.5251 17.6877 18.5235 17.7104 18.5092C17.9745 18.3436 18.295 18.3479 18.5732 18.2207C19.218 17.9269 19.8335 17.59 20.287 17.034C20.6313 16.6118 20.8638 16.1342 20.8818 15.5751C20.8833 15.5205 20.9185 15.4674 20.933 15.4119C20.9467 15.3588 20.9291 15.2762 21.0124 15.2813C21.1056 15.2871 21.1052 15.367 21.1095 15.4426C21.115 15.5406 21.0528 15.6977 21.16 15.7217C21.3016 15.7539 21.2758 15.5682 21.3317 15.4844C21.3881 15.3999 21.4053 15.2914 21.4749 15.2111C21.4957 15.1875 21.516 15.1537 21.5532 15.1626C21.6002 15.1743 21.6056 15.2189 21.6017 15.2565C21.5962 15.3138 21.5908 15.3739 21.5689 15.4263C21.4522 15.7054 21.3975 16.0101 21.2214 16.2652C21.1905 16.3098 21.1862 16.3618 21.1932 16.4145L21.1967 16.4164Z" fill="#D0DD45"/>
<path d="M8.75819 15.0681C8.64394 15.0119 8.53321 15.0041 8.49408 15.1483C8.45691 15.2852 8.56764 15.3515 8.67563 15.379C8.79302 15.4085 8.89866 15.3666 8.92684 15.2317C8.95501 15.0964 8.88732 14.9801 8.82784 14.8669C8.68424 14.5924 8.48117 14.3516 8.37865 14.0531C8.31605 13.8705 8.28983 13.7026 8.43773 13.5503C8.5023 13.4836 8.46278 13.432 8.41582 13.3836C8.31018 13.2746 8.31996 13.1444 8.35948 13.0195C8.45339 12.7233 8.61186 12.4574 8.77541 12.1949C8.84389 12.0848 8.90649 11.9708 8.93231 11.8425C8.94836 11.763 8.93857 11.6746 8.86971 11.6301C8.79458 11.5812 8.69755 11.5696 8.60755 11.5994C8.5199 11.6285 8.50425 11.7119 8.49134 11.7875C8.48391 11.8313 8.50034 11.8821 8.54925 11.9003C8.62711 11.9294 8.70107 11.929 8.75702 11.8398C8.69833 11.8026 8.5786 11.8646 8.58251 11.7421C8.58486 11.6661 8.65059 11.6739 8.69989 11.6758C8.80671 11.6805 8.81924 11.7584 8.81924 11.8414C8.81924 11.8863 8.8251 11.9619 8.78911 11.9658C8.56608 11.9898 8.60755 12.1802 8.55277 12.3108C8.54103 12.3388 8.51951 12.3628 8.48586 12.4144C8.38883 12.0945 8.41348 11.791 8.37709 11.4955C8.33913 11.185 8.39156 10.9043 8.45221 10.6101C8.52343 10.6182 8.5559 10.6864 8.56177 10.7279C8.58173 10.8714 8.61812 10.9857 8.77541 11.0416C8.84076 11.0648 8.83684 11.1524 8.81571 11.216C8.79458 11.2811 8.74567 11.3288 8.67329 11.3292C8.62359 11.3296 8.58407 11.2963 8.5872 11.2428C8.59268 11.1431 8.68424 11.1881 8.74841 11.1714C8.70655 11.0722 8.6459 11.0392 8.56021 11.0815C8.48508 11.1183 8.47647 11.1877 8.49017 11.2652C8.51286 11.3932 8.62125 11.4021 8.71359 11.4145C8.80202 11.4265 8.87558 11.3893 8.90884 11.2908C8.96675 11.1191 8.86775 10.9915 8.79224 10.8582C8.74567 10.776 8.70146 10.6961 8.75546 10.6054C8.79889 10.5329 8.86423 10.491 8.95344 10.5259C9.0094 10.5476 9.06183 10.5697 9.12169 10.5379C9.20504 10.493 9.27234 10.5201 9.32712 10.5895C9.38894 10.6674 9.37368 10.7454 9.32555 10.8225C9.2606 10.9272 9.19682 11.0334 9.17374 11.1559C9.1483 11.2901 9.198 11.3928 9.33847 11.4176C9.45859 11.4389 9.55602 11.3889 9.60023 11.2668C9.6374 11.1641 9.58067 11.1055 9.49498 11.0702C9.45233 11.0528 9.40068 11.0559 9.37838 11.1086C9.3412 11.1966 9.41829 11.1641 9.45194 11.1699C9.51219 11.1803 9.5298 11.2172 9.51376 11.2672C9.49772 11.316 9.45194 11.335 9.40342 11.3269C9.34277 11.3168 9.29777 11.2858 9.27899 11.2199C9.25669 11.1416 9.2696 11.0594 9.33964 11.0346C9.47737 10.9861 9.50085 10.8884 9.51611 10.7667C9.52432 10.7 9.55523 10.6302 9.6464 10.6008C9.79783 11.2121 9.72779 11.8189 9.65032 12.4558C9.60062 12.3923 9.54545 12.3527 9.53684 12.305C9.50945 12.1465 9.47659 12.0158 9.29973 11.9367C9.19604 11.8906 9.24847 11.7099 9.36546 11.6805C9.41829 11.6669 9.49341 11.6498 9.50867 11.7305C9.51924 11.7871 9.48324 11.8282 9.41476 11.8235C9.38464 11.8212 9.3412 11.8072 9.34042 11.8565C9.33925 11.9104 9.38777 11.9107 9.42572 11.9111C9.48402 11.9119 9.55132 11.9185 9.57754 11.8514C9.60101 11.791 9.60649 11.7293 9.55876 11.6692C9.47307 11.5614 9.36233 11.5696 9.25708 11.6111C9.14556 11.6549 9.14009 11.7572 9.17178 11.8569C9.2563 12.1228 9.3999 12.3616 9.54976 12.5939C9.64288 12.7385 9.69962 12.8951 9.74696 13.0548C9.78492 13.1831 9.7724 13.3119 9.63779 13.3968C9.56228 13.4444 9.51141 13.4778 9.63975 13.5499C9.79235 13.6352 9.78335 13.7953 9.73875 13.9477C9.64875 14.2547 9.44568 14.5055 9.30912 14.7893C9.25903 14.8932 9.19408 14.9913 9.15456 15.0991C9.10252 15.241 9.1753 15.3383 9.30795 15.3875C9.43042 15.4329 9.57206 15.3511 9.59319 15.2274C9.62645 15.0324 9.47307 15.0351 9.29425 15.006C9.4938 14.9525 9.51532 14.83 9.52667 14.6982C9.53019 14.6564 9.53841 14.5966 9.59593 14.5966C9.6644 14.597 9.64053 14.6606 9.64992 14.7005C9.70744 14.9456 9.69062 15.1933 9.70079 15.441C9.71214 15.7151 9.6871 15.9733 9.62488 16.2373C9.53137 16.2187 9.4985 16.1493 9.50593 16.0796C9.52158 15.94 9.46876 15.8601 9.32594 15.8431C9.35685 15.7648 9.40929 15.7965 9.44841 15.7938C9.53919 15.7876 9.60336 15.7458 9.60375 15.6539C9.60454 15.5593 9.55132 15.4926 9.44881 15.4879C9.35998 15.4841 9.2606 15.4596 9.19173 15.5391C9.11661 15.6256 9.15143 15.7155 9.19017 15.8105C9.29464 16.0683 9.45702 16.2947 9.58928 16.537C9.66479 16.6754 9.7094 16.8224 9.75518 16.9697C9.80996 17.1472 9.65736 17.2453 9.58302 17.3729C9.74657 17.4531 9.79548 17.5943 9.76692 17.7579C9.72623 17.9893 9.60806 18.1905 9.48441 18.3878C9.44646 18.4487 9.3819 18.5057 9.41711 18.6007C9.5298 18.5716 9.54506 18.4522 9.66088 18.3855C9.63897 18.6565 9.79822 18.893 9.70862 19.1593C9.68905 19.2175 9.68749 19.2943 9.70901 19.3509C9.8127 19.623 9.67653 19.882 9.67497 20.1476C9.67458 20.1778 9.68162 20.2185 9.64249 20.2298C9.59632 20.2429 9.5701 20.2046 9.5521 20.1724C9.53371 20.1398 9.51298 20.0983 9.51845 20.0646C9.53841 19.939 9.47972 19.8793 9.36859 19.8339C9.28447 19.7998 9.24221 19.725 9.27469 19.6277C9.30403 19.5404 9.36625 19.5067 9.45624 19.5172C9.50241 19.5226 9.52745 19.5459 9.52276 19.5936C9.51141 19.7091 9.41672 19.6548 9.34864 19.6715C9.38307 19.7777 9.4625 19.7719 9.53724 19.7471C9.62723 19.7172 9.61197 19.6409 9.59984 19.5687C9.57754 19.4377 9.47267 19.4315 9.37603 19.4334C9.27547 19.4354 9.1843 19.4579 9.17843 19.5951C9.17256 19.7386 9.2023 19.8692 9.29581 19.9743C9.37133 20.0592 9.39129 20.1549 9.34825 20.2422C9.30286 20.334 9.20308 20.3278 9.108 20.2999C9.06613 20.2879 9.01722 20.2949 8.97262 20.2999C8.89593 20.3085 8.80867 20.3418 8.76172 20.2542C8.7132 20.1635 8.71476 20.063 8.78676 19.982C8.87245 19.8855 8.91275 19.7738 8.92449 19.6498C8.9331 19.5598 8.91784 19.4819 8.81415 19.4505C8.70811 19.4183 8.60638 19.411 8.5293 19.5059C8.48195 19.5645 8.45965 19.6374 8.50973 19.7029C8.57195 19.7839 8.64864 19.7758 8.72572 19.7238C8.72181 19.7021 8.72298 19.682 8.71672 19.6792C8.66468 19.6571 8.57468 19.6928 8.5786 19.5874C8.58055 19.5273 8.61968 19.5133 8.67055 19.5121C8.75467 19.5102 8.81024 19.547 8.81924 19.6319C8.82393 19.6761 8.82628 19.7541 8.8071 19.7618C8.59073 19.8494 8.58447 20.0844 8.4526 20.2887C8.32583 19.6424 8.33522 19.0504 8.45065 18.4553C8.5289 18.4433 8.55277 18.5022 8.57234 18.5534C8.61929 18.6775 8.59581 18.8403 8.78245 18.8829C8.82354 18.8922 8.81806 18.9597 8.81963 19.0058C8.82276 19.107 8.76876 19.1648 8.67485 19.1818C8.62359 19.1911 8.58408 19.1586 8.58525 19.1039C8.58721 18.988 8.68894 19.0237 8.75898 19.0047C8.71242 18.9415 8.6729 18.8775 8.58407 18.9139C8.52147 18.9399 8.50504 18.9934 8.50543 19.0566C8.50543 19.1295 8.50856 19.1896 8.5919 19.2315C8.69442 19.283 8.78637 19.2749 8.86345 19.2063C8.96518 19.1155 8.95736 18.993 8.89906 18.8853C8.76132 18.6302 8.60833 18.3832 8.4706 18.1285C8.37826 17.9579 8.2597 17.7582 8.3587 17.5815C8.45769 17.4043 8.40526 17.2868 8.35126 17.1259C8.2644 16.8673 8.43969 16.6568 8.55277 16.4417C8.62164 16.3106 8.70459 16.1869 8.78011 16.0598C8.81336 16.0043 8.86188 15.9408 8.76837 15.9004C8.6772 15.8613 8.62985 15.9276 8.61185 15.9985C8.58368 16.1102 8.58329 16.2311 8.45847 16.311C8.31879 15.7252 8.33248 15.1421 8.45182 14.5505C8.51951 14.5544 8.56177 14.642 8.56177 14.6734C8.56177 14.8498 8.68072 14.9429 8.79145 15.0456C8.78872 15.0661 8.77932 15.0747 8.75819 15.0681Z" fill="#D0DD45"/>
<path d="M14.9265 15.8458C15.0795 15.7244 15.1922 15.6023 15.3452 15.5275C15.4227 15.4895 15.499 15.4364 15.5803 15.4969C15.6543 15.5519 15.6715 15.6376 15.6422 15.7233C15.6163 15.7993 15.6175 15.845 15.7142 15.8563C15.8151 15.8679 15.8503 15.9462 15.8672 16.0327C15.884 16.1187 15.8296 16.1614 15.7607 16.1955C15.7408 16.2056 15.7275 16.2292 15.7106 16.2467C15.7744 16.3122 15.8292 16.2742 15.8738 16.2424C15.9791 16.1676 16.0424 16.2261 16.0992 16.3044C16.1606 16.3886 16.1305 16.4549 16.0601 16.5239C15.9575 16.6239 15.81 16.6584 15.7149 16.7693C15.6903 16.798 15.6253 16.7991 15.589 16.7631C15.5577 16.732 15.5717 16.6898 15.5917 16.6557C15.6246 16.5998 15.6613 16.5467 15.695 16.4917C15.7298 16.4351 15.7623 16.3715 15.7157 16.3118C15.6692 16.2513 15.5944 16.2726 15.5334 16.2854C15.4708 16.2986 15.4121 16.33 15.3511 16.3529C15.3115 16.3676 15.2681 16.4165 15.2317 16.3622C15.2067 16.3242 15.2094 16.2668 15.256 16.2416C15.3847 16.1718 15.3964 15.9927 15.5483 15.9443C15.5839 15.933 15.6124 15.8912 15.5921 15.8497C15.5717 15.8086 15.5275 15.8175 15.4884 15.8225C15.3123 15.8442 15.137 15.895 14.9265 15.8458Z" fill="#D0DD45"/>
<path d="M19.9626 13.3089C19.8084 13.4167 19.7446 13.6121 19.5658 13.6946C19.4625 13.7423 19.3866 13.6935 19.3381 13.6074C19.2872 13.5167 19.3588 13.4702 19.421 13.4194C19.558 13.3073 19.7442 13.3321 19.8906 13.2453C19.9277 13.2232 19.9614 13.2496 19.9626 13.3089Z" fill="#D0DD45"/>
<path d="M18.2147 12.4209C18.2116 12.4852 18.2194 12.5527 18.203 12.6136C18.1752 12.7167 18.093 12.752 17.9905 12.7376C17.8919 12.7237 17.8954 12.6489 17.8962 12.5752C17.8982 12.3984 18.0179 12.2678 18.0801 12.1146C18.1059 12.051 18.1513 12.0805 18.1732 12.1348C18.21 12.227 18.2155 12.3232 18.2147 12.4209Z" fill="#D0DD45"/>
<path d="M17.7445 17.1517C17.723 17.2479 17.6995 17.3607 17.6726 17.4727C17.6624 17.5154 17.6553 17.5661 17.5939 17.5677C17.5321 17.5696 17.5211 17.5212 17.5113 17.4774C17.4859 17.3649 17.462 17.2517 17.4397 17.1385C17.4143 17.0094 17.4577 16.9059 17.5982 16.9082C17.7301 16.9106 17.7563 17.0203 17.7445 17.1517Z" fill="#D0DD45"/>
<path d="M18.6711 12.2119C18.711 12.4306 18.6641 12.6046 18.6144 12.776C18.5835 12.883 18.4986 12.9156 18.3984 12.8663C18.3049 12.8202 18.2654 12.7516 18.3295 12.6457C18.4195 12.4961 18.5205 12.3577 18.6711 12.2119Z" fill="#D0DD45"/>
<path d="M20.2546 13.7474C20.0911 13.8738 19.9647 13.9812 19.8277 14.0735C19.7663 14.1145 19.6861 14.1351 19.6102 14.0777C19.5492 14.0312 19.5398 13.9696 19.555 13.906C19.5762 13.8184 19.6548 13.7846 19.7323 13.7835C19.8931 13.7811 20.0473 13.7094 20.2546 13.7474Z" fill="#D0DD45"/>
<path d="M15.2797 14.6254C15.417 14.6084 15.4847 14.6607 15.4738 14.7983C15.4628 14.9348 15.3634 14.955 15.2629 14.9329C15.1498 14.9084 15.0426 14.8584 14.924 14.8503C14.8778 14.8472 14.8332 14.8127 14.8266 14.7658C14.8172 14.6975 14.8837 14.7092 14.9228 14.6995C15.0426 14.6708 15.1576 14.6185 15.2797 14.6254Z" fill="#D0DD45"/>
<path d="M15.6643 12.7788C15.8012 12.8598 15.9409 12.937 16.0736 13.0246C16.1295 13.0614 16.2007 13.1095 16.1671 13.196C16.144 13.2561 16.1045 13.3146 16.0376 13.3316C15.9609 13.351 15.9049 13.3146 15.856 13.2514C15.7527 13.1169 15.7077 12.9575 15.6248 12.8145C15.6381 12.8025 15.6514 12.7908 15.6643 12.7788Z" fill="#D0DD45"/>
<path d="M19.4486 15.9172C19.5405 15.9327 19.6129 15.9684 19.6646 16.0425C19.7006 16.0944 19.7452 16.1409 19.7823 16.1925C19.8203 16.2456 19.924 16.284 19.8751 16.358C19.8355 16.4181 19.7561 16.3565 19.697 16.3394C19.6047 16.3131 19.5108 16.2855 19.4239 16.2452C19.3335 16.2034 19.294 16.1258 19.3151 16.0231C19.3312 15.9463 19.3844 15.9223 19.4486 15.9172Z" fill="#D0DD45"/>
<path d="M18.897 13.0825C18.8015 13.0883 18.7499 13.046 18.7092 12.9956C18.6618 12.9371 18.7084 12.8917 18.7397 12.8409C18.8207 12.7091 18.9604 12.6417 19.0652 12.5362C19.1185 12.4831 19.1803 12.5199 19.1611 12.5839C19.1138 12.7424 19.0484 12.8964 18.9815 13.0479C18.9706 13.0724 18.913 13.0766 18.897 13.0825Z" fill="#D0DD45"/>
<path d="M20.3665 15.3859C20.1384 15.4305 19.9569 15.4119 19.7773 15.4115C19.6712 15.4111 19.6294 15.3305 19.6474 15.2351C19.6669 15.1301 19.7401 15.0711 19.8473 15.1134C20.0152 15.1793 20.185 15.2444 20.3665 15.3859Z" fill="#D0DD45"/>
<path d="M15.2062 14.1678C15.3165 14.1763 15.4496 14.1208 15.5098 14.2713C15.5376 14.3403 15.5153 14.4077 15.4617 14.4461C15.3455 14.5291 15.2398 14.4461 15.1334 14.4058C15.1092 14.3969 15.0837 14.3856 15.0653 14.3686C15.0055 14.312 14.8533 14.3182 14.874 14.2379C14.8994 14.1383 15.0368 14.1782 15.1283 14.1681C15.1538 14.1654 15.18 14.1678 15.2062 14.1678Z" fill="#D0DD45"/>
<path d="M19.5732 12.8591C19.5035 13.022 19.4652 13.1937 19.3294 13.3158C19.2535 13.3841 19.1842 13.4034 19.1115 13.324C19.0371 13.2433 19.0434 13.1584 19.1256 13.0867C19.2523 12.9766 19.4014 12.9045 19.5732 12.8591Z" fill="#D0DD45"/>
<path d="M15.3047 13.2222C15.4784 13.2683 15.6459 13.292 15.7922 13.3827C15.8779 13.4358 15.8951 13.5032 15.8572 13.5765C15.8145 13.6583 15.7218 13.7041 15.6443 13.6436C15.5011 13.5315 15.3681 13.4036 15.3047 13.2222Z" fill="#D0DD45"/>
<path d="M16.49 17.2347C16.5131 17.1076 16.5319 16.9738 16.5628 16.8424C16.5882 16.7342 16.6719 16.6861 16.7686 16.7392C16.8437 16.7803 16.92 16.8552 16.8476 16.9614C16.7713 17.073 16.6919 17.1828 16.6121 17.2921C16.5937 17.3173 16.569 17.3464 16.533 17.3371C16.4814 17.3239 16.497 17.2766 16.49 17.2347Z" fill="#D0DD45"/>
<path d="M17.0413 12.4254C17.053 12.2819 17.0064 12.1226 17.1039 12.1052C17.2169 12.085 17.2083 12.2552 17.2561 12.3405C17.2874 12.3963 17.3195 12.4533 17.341 12.5134C17.3758 12.6115 17.3586 12.6979 17.2416 12.7216C17.1262 12.7448 17.0522 12.6929 17.042 12.5723C17.0369 12.5087 17.0413 12.4444 17.0413 12.4254Z" fill="#D0DD45"/>
<path d="M16.4845 16.671C16.4837 16.7342 16.1469 17.0649 16.0811 17.068C16.0209 17.0711 16.0138 17.0262 16.0299 16.9928C16.094 16.8602 16.1011 16.7059 16.1922 16.5846C16.2329 16.5307 16.2795 16.4861 16.355 16.5202C16.4211 16.5497 16.4865 16.5819 16.4845 16.671Z" fill="#D0DD45"/>
<path d="M20.4366 14.8158C20.2527 14.9193 20.0883 14.9321 19.9346 14.9774C19.8504 15.0018 19.7792 14.9666 19.7295 14.9007C19.6967 14.8572 19.6955 14.7971 19.7252 14.7537C19.773 14.6839 19.8485 14.6622 19.9314 14.6832C20.086 14.7219 20.2402 14.7638 20.4366 14.8158Z" fill="#D0DD45"/>
<path d="M18.8143 16.5593C18.9046 16.562 18.9672 16.5919 18.9931 16.6675C19.0322 16.7819 19.0647 16.8986 19.1011 17.0137C19.1108 17.0447 19.1245 17.0769 19.0925 17.1005C19.0631 17.1219 19.0295 17.1149 19.0048 17.0908C18.9039 16.9924 18.801 16.8958 18.7063 16.7919C18.6605 16.7419 18.6613 16.6714 18.6902 16.6105C18.7164 16.5547 18.7779 16.5686 18.8143 16.5593Z" fill="#D0DD45"/>
<path d="M16.0818 12.6172C16.0967 12.5695 16.0967 12.5288 16.117 12.5125C16.153 12.4835 16.1913 12.5129 16.2191 12.5389C16.3083 12.6222 16.3983 12.7044 16.4809 12.794C16.5728 12.8936 16.5036 12.9712 16.43 13.0386C16.349 13.1131 16.2743 13.063 16.2379 12.994C16.1733 12.8704 16.1299 12.7362 16.0818 12.6172Z" fill="#D0DD45"/>
<path d="M18.6095 17.1448C18.6119 17.1831 18.6154 17.2215 18.6165 17.2599C18.6177 17.2913 18.6216 17.327 18.5805 17.3378C18.5418 17.3479 18.5234 17.3177 18.5042 17.2925C18.4342 17.2006 18.3583 17.1122 18.2969 17.0153C18.2319 16.9129 18.2452 16.8206 18.3657 16.7609C18.4992 16.6946 18.5379 16.7838 18.5719 16.8811C18.6017 16.966 18.6228 17.0529 18.6095 17.1448Z" fill="#D0DD45"/>
<path d="M19.5182 16.6992C19.5022 16.7795 19.449 16.7861 19.4001 16.7562C19.2842 16.6856 19.1665 16.6147 19.0651 16.5263C18.999 16.4685 18.9794 16.3836 19.0726 16.3111C19.1539 16.2476 19.2338 16.241 19.2925 16.3251C19.3762 16.4457 19.4454 16.5767 19.5182 16.6992Z" fill="#D0DD45"/>
<path d="M20.044 14.2378C20.1257 14.275 20.2936 14.1889 20.3089 14.2874C20.3237 14.3851 20.1465 14.4045 20.0557 14.4611C20.0127 14.4878 19.9591 14.4994 19.9094 14.513C19.8495 14.5293 19.7841 14.5758 19.729 14.5107C19.6789 14.4514 19.6859 14.375 19.6989 14.3064C19.7149 14.2215 19.7935 14.2308 19.8565 14.2292C19.9148 14.2269 19.9735 14.2339 20.044 14.2378Z" fill="#D0DD45"/>
<path d="M16.9912 17.2125C16.9912 17.1354 16.9916 17.0842 16.9912 17.0326C16.9897 16.9132 17.0503 16.8446 17.1693 16.8597C17.3019 16.8764 17.3137 16.9826 17.2796 17.0799C17.2358 17.2059 17.1716 17.3254 17.1125 17.4455C17.1031 17.4645 17.0738 17.4851 17.0535 17.4855C17.0143 17.4859 17.0038 17.4494 17.0014 17.4172C16.9959 17.3409 16.9936 17.2637 16.9912 17.2125Z" fill="#D0DD45"/>
<path d="M16.5965 12.189C16.7096 12.3495 16.8031 12.47 16.8821 12.5991C16.9353 12.6864 16.9608 12.7852 16.8223 12.831C16.7068 12.8694 16.6301 12.8302 16.6098 12.7089C16.5836 12.5542 16.5355 12.3995 16.5965 12.189Z" fill="#D0DD45"/>
<path d="M20.1981 15.9189C19.9645 15.9119 19.7829 15.8855 19.6104 15.8239C19.5196 15.7913 19.5208 15.7033 19.5568 15.6266C19.5889 15.5583 19.6393 15.5044 19.7254 15.5502C19.8894 15.6374 20.0357 15.7467 20.1981 15.9189Z" fill="#D0DD45"/>
<path d="M17.7493 12.5087C17.7458 12.6157 17.7149 12.6925 17.5936 12.6917C17.4684 12.6913 17.4124 12.6235 17.4336 12.5072C17.4566 12.3812 17.495 12.2583 17.5294 12.1346C17.5376 12.1044 17.5545 12.0687 17.5944 12.0769C17.6151 12.0811 17.6421 12.1036 17.6476 12.1234C17.6848 12.2529 17.7169 12.3835 17.7493 12.5087Z" fill="#D0DD45"/>
<path d="M15.009 13.7131C15.2215 13.6565 15.3976 13.7298 15.5717 13.7802C15.6648 13.8073 15.6586 13.9039 15.6284 13.9771C15.5924 14.0648 15.5228 14.0756 15.4363 14.033C15.2798 13.9558 15.1495 13.8473 15.009 13.7131Z" fill="#D0DD45"/>
<path d="M18.1342 17.1541C18.1248 17.2794 18.1792 17.4263 18.0607 17.448C17.9632 17.4658 17.9581 17.3053 17.9131 17.2266C17.8623 17.1379 17.7891 17.0297 17.876 16.9223C17.9182 16.87 17.9902 16.8541 18.0544 16.889C18.1812 16.9584 18.1346 17.0778 18.1342 17.1541Z" fill="#D0DD45"/>
<path d="M14.8325 15.2922C15.0102 15.2096 15.1405 15.1414 15.2766 15.0898C15.3412 15.0654 15.4214 15.065 15.4703 15.1356C15.5071 15.1887 15.4985 15.2464 15.4664 15.2992C15.4234 15.3693 15.3647 15.3825 15.2837 15.3596C15.1565 15.3236 15.0156 15.3736 14.8325 15.2922Z" fill="#D0DD45"/>
<path d="M8.78915 15.0457C8.85997 15.1685 8.82319 15.2512 8.69054 15.2933C8.64241 15.3084 8.59663 15.2956 8.58607 15.24C8.57707 15.1925 8.58998 15.1442 8.65181 15.148C8.71598 15.1523 8.77232 15.16 8.75862 15.0684C8.76919 15.0615 8.77936 15.0542 8.78915 15.0457Z" fill="#D0DD45"/>
<path d="M9.49831 15.6239C9.47835 15.7232 9.36606 15.6726 9.3148 15.7313C9.29171 15.7575 9.25767 15.7104 9.26041 15.6811C9.26863 15.5864 9.33671 15.5586 9.42162 15.5586C9.46309 15.5586 9.49557 15.574 9.49831 15.6239Z" fill="#D0DD45"/>
<path d="M13.845 16.7352C13.8345 16.7375 13.8212 16.7446 13.8146 16.7407C13.8061 16.7356 13.803 16.7215 13.7971 16.7113C13.8068 16.709 13.8197 16.7016 13.8255 16.7055C13.8345 16.7113 13.8388 16.725 13.845 16.7352Z" fill="#0BA6DF"/>
<path d="M21.1964 16.4166C21.1894 16.4227 21.1825 16.4289 21.1755 16.4351C21.1813 16.4277 21.1871 16.4204 21.1929 16.4131L21.1964 16.4166Z" fill="#0BA6DF"/>
<path d="M8.50233 16.9644C8.48433 16.8194 8.55594 16.7007 8.61932 16.5813C8.73671 16.3603 8.85957 16.1425 8.97774 15.9219C9.03252 15.8195 9.08417 15.8676 9.11743 15.9285C9.26572 16.1994 9.40697 16.4743 9.55253 16.7472C9.6077 16.8508 9.59714 16.9624 9.5897 17.0706C9.5807 17.2016 9.45628 17.2896 9.34437 17.2505C9.28489 17.2299 9.21055 17.2032 9.21877 17.1229C9.22816 17.0326 9.29546 17.0318 9.3655 17.0578C9.42576 17.0799 9.46723 17.0489 9.50049 17.0082C9.5314 16.9706 9.51027 16.9345 9.47819 16.9074C9.43632 16.8717 9.39954 16.8829 9.35728 16.9155C9.27942 16.9752 9.19294 16.9775 9.13895 16.8899C9.08221 16.7976 9.09043 16.6953 9.19294 16.6379C9.28372 16.5871 9.31033 16.5472 9.20155 16.5007C9.12877 16.4697 9.13738 16.4127 9.12877 16.3572C9.12017 16.3026 9.09551 16.2564 9.0376 16.244C8.99691 16.2351 8.96796 16.2812 8.97774 16.3014C9.04543 16.4417 8.76449 16.5046 8.88696 16.6174C8.98439 16.7069 9.00904 16.7845 8.96248 16.8829C8.91122 16.9915 8.81457 16.9624 8.72732 16.9198C8.66784 16.8907 8.61815 16.9062 8.60485 16.9667C8.59076 17.0306 8.64241 17.0651 8.69915 17.0589C8.77232 17.0508 8.85644 17.0233 8.87092 17.1229C8.88305 17.2055 8.80714 17.2474 8.73475 17.2594C8.6338 17.2757 8.55202 17.2284 8.51407 17.1373C8.49411 17.0861 8.50546 17.0221 8.50233 16.9644Z" fill="#0BA6DF"/>
<path d="M8.50314 13.0808C8.48984 12.9924 8.52858 12.9052 8.57436 12.8176C8.70544 12.5663 8.83456 12.3143 8.96211 12.0616C9.01572 11.9553 9.06893 11.9549 9.12254 12.0573C9.26927 12.3364 9.41248 12.6171 9.55921 12.8962C9.61047 12.9936 9.60812 13.0986 9.59482 13.1986C9.57408 13.3522 9.40544 13.4347 9.29001 13.3564C9.24658 13.327 9.20627 13.287 9.23014 13.2273C9.25166 13.1734 9.29236 13.1393 9.35222 13.1746C9.42461 13.2173 9.461 13.1769 9.49191 13.1223C9.50873 13.0924 9.51187 13.0591 9.48174 13.035C9.43948 13.0013 9.39918 13.0137 9.3577 13.0428C9.29275 13.0882 9.21175 13.1021 9.16323 13.0397C9.10571 12.9656 9.11041 12.8707 9.15423 12.783C9.1738 12.7443 9.26184 12.7125 9.22819 12.6869C9.12215 12.6066 9.15463 12.4729 9.08302 12.3853C9.07637 12.3771 9.05954 12.3736 9.04741 12.3733C8.99929 12.3709 8.95859 12.4109 8.97425 12.4411C9.04624 12.5791 8.72813 12.6249 8.8909 12.7536C8.99929 12.8393 8.98598 12.9141 8.94099 13.0013C8.8866 13.1068 8.80717 13.073 8.7293 13.0191C8.68704 12.9901 8.64048 12.9947 8.60644 13.035C8.57905 13.0676 8.57983 13.1091 8.60135 13.144C8.62561 13.1831 8.6577 13.2235 8.7113 13.1878C8.78721 13.137 8.84356 13.1607 8.85412 13.2405C8.86508 13.3223 8.80013 13.3665 8.72383 13.3809C8.58727 13.4068 8.5004 13.2925 8.50314 13.0808Z" fill="#0BA6DF"/>
<path d="M8.79009 14.2906C8.91921 14.3255 8.96773 14.3906 8.96851 14.4926C8.96891 14.5372 8.97556 14.5973 9.02916 14.6007C9.08942 14.6046 9.11368 14.548 9.12385 14.4953C9.14146 14.4038 9.15085 14.3084 9.27332 14.3135C9.27567 14.2196 9.19233 14.2437 9.16572 14.2022C9.1172 14.1262 9.10272 14.0409 9.14185 13.963C9.1845 13.8781 9.26784 13.8847 9.34649 13.9153C9.39697 13.9347 9.44627 13.9498 9.49401 13.9138C9.51826 13.8955 9.51357 13.8684 9.50144 13.8444C9.47131 13.7862 9.42788 13.7567 9.35862 13.7765C9.2968 13.794 9.23106 13.7936 9.22363 13.7153C9.21463 13.6261 9.28897 13.6187 9.35706 13.6137C9.50653 13.6024 9.58948 13.6559 9.59613 13.8184C9.60278 13.9808 9.54605 14.1223 9.47405 14.2596C9.36684 14.4647 9.24711 14.6635 9.14224 14.8698C9.0812 14.99 9.02642 15.0094 8.96069 14.8814C8.81592 14.5984 8.62497 14.3379 8.5205 14.0351C8.44498 13.8165 8.51502 13.6292 8.67153 13.5873C8.76935 13.561 8.83235 13.6036 8.84331 13.6901C8.85426 13.7765 8.794 13.7959 8.71379 13.7707C8.65197 13.7513 8.61558 13.7932 8.59249 13.842C8.57371 13.8816 8.59093 13.9161 8.62497 13.9436C8.65745 13.97 8.68679 13.9878 8.72709 13.9549C8.80887 13.8874 8.90043 13.8661 8.95443 13.9742C9.0049 14.075 8.98456 14.1762 8.86835 14.2352C8.85191 14.2425 8.83822 14.2557 8.79009 14.2906Z" fill="#0BA6DF"/>
<path d="M9.30493 18.1708C9.20046 18.0948 9.12025 18.0522 9.12338 17.9409C9.12729 17.7936 9.19264 17.7408 9.33311 17.7951C9.38162 17.8137 9.42271 17.8521 9.47475 17.806C9.50331 17.7808 9.50879 17.7525 9.48766 17.7211C9.45792 17.6765 9.42819 17.6369 9.36167 17.661C9.28967 17.6873 9.21689 17.6753 9.22863 17.585C9.23959 17.4985 9.3018 17.421 9.4051 17.4474C9.50723 17.4733 9.58861 17.5253 9.59957 17.6567C9.61991 17.9079 9.49079 18.1002 9.37615 18.3018C9.28733 18.4577 9.20594 18.6178 9.12025 18.776C9.08581 18.8396 9.03886 18.9024 8.98408 18.8008C8.83461 18.5228 8.69336 18.2406 8.54898 17.9599C8.50594 17.8762 8.50594 17.785 8.50163 17.6947C8.4942 17.5427 8.58811 17.4873 8.72114 17.4823C8.78688 17.4799 8.86592 17.4982 8.86865 17.578C8.87178 17.678 8.78688 17.6614 8.72584 17.6474C8.66519 17.6338 8.62449 17.6424 8.59984 17.7013C8.58419 17.7389 8.57363 17.7769 8.60963 17.8075C8.65462 17.8455 8.70275 17.8432 8.75479 17.8161C8.82405 17.78 8.90778 17.7288 8.95434 17.8316C8.99504 17.9215 9.0013 18.0258 8.89487 18.0882C8.79705 18.1456 8.80722 18.1875 8.90387 18.2293C8.96961 18.258 8.96804 18.3193 8.97547 18.3774C8.98095 18.4212 8.98604 18.4813 9.04121 18.4802C9.09912 18.4786 9.13355 18.4236 9.12768 18.3693C9.11438 18.2565 9.17972 18.2072 9.30493 18.1708Z" fill="#0BA6DF"/>
<path d="M9.03476 11.08C9.00464 11.0234 8.98938 10.9889 8.96903 10.9575C8.91816 10.8776 8.83325 10.778 8.89312 10.7032C8.95064 10.6311 9.07937 10.7222 9.17954 10.6795C9.22101 10.6617 9.22962 10.7167 9.21554 10.7594C9.17876 10.8679 9.12476 10.9664 9.03476 11.08Z" fill="#0BA6DF"/>
<path d="M9.07765 20.1189C9.03461 20.0452 8.89493 20.2627 8.89453 20.0766C8.89414 19.9878 8.93718 19.8231 9.04283 19.8277C9.14535 19.832 9.18408 19.9886 9.20326 20.0902C9.21812 20.167 9.13596 20.1359 9.07765 20.1189Z" fill="#0BA6DF"/>
<path d="M9.03806 17.2051C9.12023 17.2333 9.19222 17.2943 9.19027 17.3469C9.18753 17.4087 9.12179 17.4875 9.04041 17.4852C8.97702 17.4832 8.91754 17.4203 8.91872 17.3588C8.91989 17.2901 8.98445 17.2437 9.03806 17.2051Z" fill="#0BA6DF"/>
<path d="M9.18684 13.4842C9.15632 13.5414 9.11406 13.5958 9.04715 13.5954C8.99159 13.5951 8.91959 13.5572 8.91294 13.5066C8.90433 13.4421 8.96381 13.3903 9.03267 13.3834C9.1035 13.3756 9.14888 13.4262 9.18684 13.4842Z" fill="#0BA6DF"/>
<path d="M9.14329 11.5212C9.13468 11.5799 9.10103 11.6151 9.04234 11.6132C8.97621 11.6108 8.95625 11.5564 8.96252 11.5069C8.96799 11.4602 8.99812 11.403 9.05603 11.4115C9.10729 11.4184 9.13507 11.4687 9.14329 11.5212Z" fill="#0BA6DF"/>
<path d="M9.14627 19.3267C9.13101 19.3796 9.10284 19.4225 9.04219 19.4179C8.98936 19.414 8.96628 19.3723 8.96706 19.3244C8.96784 19.2784 8.98506 19.2316 9.04219 19.2332C9.09775 19.2347 9.13375 19.2703 9.14627 19.3267Z" fill="#0BA6DF"/>
<path d="M9.57605 19.1312C9.5021 19.1115 9.50014 19.0304 9.43245 19.0258C9.37963 19.0219 9.34441 18.9891 9.37532 18.9365C9.40506 18.8863 9.45241 18.9107 9.49349 18.9296C9.57801 18.969 9.62848 19.0235 9.57605 19.1312Z" fill="#0BA6DF"/>
<path d="M8.72028 15.7589C8.62207 15.7856 8.51251 15.8227 8.52346 15.6531C8.5892 15.6886 8.65728 15.7153 8.72028 15.7589Z" fill="#0BA6DF"/>
<path d="M9.40724 18.8209C9.34659 18.8225 9.29768 18.8167 9.3012 18.7545C9.30394 18.7027 9.32233 18.6498 9.38924 18.6482C9.44911 18.6467 9.45811 18.6996 9.47141 18.7402C9.49372 18.8074 9.43698 18.8086 9.40724 18.8209Z" fill="#0BA6DF"/>
<path d="M8.6709 15.5144C8.78163 15.4719 8.83719 15.4681 8.87671 15.5276C8.88493 15.5399 8.8818 15.5755 8.87476 15.5782C8.80237 15.6083 8.76559 15.5488 8.6709 15.5144Z" fill="#0BA6DF"/>
<path d="M9.29458 19.1471C9.29732 19.1819 9.28871 19.2116 9.24684 19.2085C9.1948 19.2047 9.17172 19.1657 9.16233 19.1212C9.15528 19.0872 9.17015 19.0575 9.21046 19.0594C9.26406 19.0617 9.2801 19.105 9.29458 19.1471Z" fill="#0BA6DF"/>
<path d="M8.90284 15.6479C8.90707 15.6568 8.92325 15.675 8.91901 15.6843C8.91362 15.6963 8.89244 15.7021 8.87703 15.7068C8.87433 15.7075 8.86124 15.6882 8.86085 15.6777C8.86047 15.658 8.86894 15.6421 8.90284 15.6479Z" fill="#0BA6DF"/>
<path d="M10.444 29.779C11.0008 29.1599 11.5102 28.5946 12.0181 28.0282C12.6911 27.2777 13.3629 26.5255 14.0359 25.775C14.1024 25.7009 14.1576 25.6238 14.284 25.625C15.0505 25.6312 15.8174 25.6281 16.6403 25.6281C16.3324 25.9564 16.0565 26.2518 15.7795 26.5461C14.9695 27.4072 14.1631 28.2717 13.3441 29.1238C13.2232 29.2494 13.2326 29.3239 13.3152 29.453C14.4307 31.2022 15.542 32.9542 16.6528 34.7061C16.7021 34.7841 16.8109 34.8748 16.7721 34.9469C16.7236 35.0376 16.5871 34.9849 16.4904 34.9857C15.8804 34.9899 15.27 34.9818 14.6596 34.9907C14.5047 34.993 14.4213 34.9473 14.3443 34.8108C13.5906 33.4787 12.8284 32.1513 12.0697 30.8223C11.934 30.5843 11.9379 30.5862 11.7477 30.7878C11.3639 31.1945 10.9804 31.6015 10.5887 32.0009C10.4882 32.1036 10.4404 32.2028 10.442 32.3498C10.4498 33.1585 10.4412 33.9672 10.449 34.7759C10.4506 34.9419 10.4037 34.993 10.235 34.9892C9.76783 34.9791 9.29985 34.9787 8.83266 34.9903C8.65424 34.9946 8.59085 34.9566 8.59359 34.7628C8.60572 33.9149 8.59868 33.0666 8.59868 32.2187C8.59868 30.0985 8.60063 27.9786 8.59515 25.8583C8.59476 25.685 8.62333 25.6141 8.82171 25.6211C9.28851 25.6374 9.75687 25.6339 10.2241 25.6215C10.3997 25.6168 10.4506 25.6629 10.4494 25.8417C10.4408 27.0745 10.4444 28.3074 10.4444 29.5398C10.444 29.5953 10.444 29.6492 10.444 29.779Z" fill="#201B19"/>
<path d="M19.2347 33.4035C19.9805 33.4035 20.6915 33.4035 21.4028 33.4035C22.3301 33.4035 23.2571 33.4077 24.1844 33.3996C24.3585 33.398 24.4161 33.4368 24.4086 33.6198C24.3926 34.004 24.3953 34.3894 24.411 34.7736C24.4184 34.9577 24.355 34.9918 24.1817 34.9914C21.852 34.986 19.5219 34.9868 17.1918 34.991C17.0435 34.9914 16.9841 34.9627 16.988 34.7988C16.9993 34.3436 16.9935 33.8881 16.9876 33.4329C16.986 33.3127 17.0373 33.2282 17.1085 33.1383C18.6079 31.2444 20.1053 29.3486 21.6024 27.4528C21.6509 27.3912 21.6955 27.3265 21.751 27.2505C21.6704 27.1974 21.5836 27.221 21.5041 27.2206C20.2599 27.2187 19.0156 27.216 17.7713 27.223C17.5929 27.2241 17.5229 27.1904 17.5311 26.9958C17.5479 26.5961 17.5416 26.1948 17.5334 25.7947C17.5307 25.6606 17.5718 25.6253 17.7056 25.6257C19.8138 25.6296 21.9216 25.6299 24.0299 25.6245C24.1832 25.6241 24.2192 25.6749 24.2122 25.8122C24.2028 25.9924 24.1868 26.1766 24.2142 26.3534C24.2991 26.9019 24.0694 27.3079 23.7298 27.7273C22.2331 29.5739 20.7681 31.4453 19.2918 33.3077C19.2781 33.3244 19.2688 33.3457 19.2347 33.4035Z" fill="#201B19"/>
<path d="M145 2L145 43" stroke="#414042" stroke-width="0.680275" stroke-miterlimit="3.8637"/>
</svg>
