<svg width="195" height="45" viewBox="0 0 195 45" fill="none" xmlns="http://www.w3.org/2000/svg">
<path d="M4.76692 45C2.13853 45 0 42.7652 0 40.0185V4.98149C0 2.2348 2.13853 0 4.76692 0H190.234C192.862 0 195 2.2348 195 4.98149V40.0185C195 42.7652 192.862 45 190.234 45H4.76692Z" fill="#E6E7E8"/>
<path d="M189.957 43H5.04313C3.36219 43 2 41.5862 2 39.8425V5.15753C2 3.4134 3.36262 2 5.04313 2H189.957C191.638 2 193 3.41384 193 5.15753V39.842C193 41.5862 191.638 43 189.957 43Z" stroke="#414042" stroke-miterlimit="10"/>
<path d="M145 2L145 43" stroke="#414042" stroke-width="0.680275" stroke-miterlimit="3.8637"/>
<path d="M187.031 35.2327H172.39V38.1907H187.031V35.2327Z" fill="#EC2227"/>
<path d="M187.031 32.5579H172.396V35.3465H187.031V32.5579Z" fill="#1067B2"/>
<path d="M187.031 30H172.39V38.0477H187.031V30Z" stroke="#010101" stroke-width="0.214424" stroke-miterlimit="3.8637"/>
<path d="M151.518 37.6311C151.232 37.6311 151 37.3991 151 37.1135V31.6323C151 31.3463 151.232 31.1147 151.518 31.1147H153.667C155.117 31.1147 156.054 31.8279 156.054 32.9317C156.054 33.9077 155.509 34.5783 154.555 34.8292L156.091 36.7683C156.269 36.9926 156.231 37.3185 156.006 37.4956C155.782 37.6732 155.457 37.635 155.279 37.4111L153.322 34.9386H152.036V37.1131C152.035 37.3991 151.803 37.6311 151.518 37.6311ZM152.035 33.9034H153.635C155.018 33.9034 155.018 33.1975 155.018 32.9317C155.018 32.2065 153.984 32.1499 153.667 32.1499H152.035V33.9034ZM168.045 37.596C167.469 37.596 166.504 37.596 165.508 36.7375C165.292 36.5505 165.268 36.2237 165.454 36.0072C165.641 35.7902 165.968 35.7666 166.185 35.9532C166.889 36.5608 167.53 36.5608 168.045 36.5608C168.319 36.5608 168.851 36.4304 169.125 36.1504C169.246 36.0273 169.3 35.8923 169.297 35.725C169.285 35.2259 168.751 35.0222 167.936 34.7683C167.846 34.7404 167.758 34.713 167.674 34.6856C166.327 34.2357 165.622 33.6478 165.515 32.8879C165.444 32.4102 165.571 31.9449 165.87 31.5796C166.109 31.2884 166.565 30.9325 167.382 30.8909C168.779 30.8214 169.77 31.8219 169.812 31.8643C170.011 32.0693 170.007 32.3969 169.802 32.5963C169.598 32.7957 169.27 32.7919 169.072 32.5882C169.057 32.574 168.357 31.8725 167.436 31.9248C167.088 31.9424 166.824 32.0504 166.671 32.2361C166.559 32.3725 166.513 32.5513 166.54 32.7396C166.557 32.8583 166.711 33.2713 167.999 33.7018C168.076 33.7267 168.159 33.7524 168.244 33.7795C169.064 34.0346 170.303 34.4205 170.332 35.7023C170.341 36.1483 170.18 36.5535 169.864 36.8747C169.305 37.4455 168.43 37.596 168.045 37.596ZM160.675 37.596C159.387 37.596 158.087 36.7589 158.087 34.8884V31.6323C158.087 31.3463 158.319 31.1147 158.605 31.1147C158.891 31.1147 159.122 31.3463 159.122 31.6323V34.8884C159.122 36.4403 160.311 36.5608 160.675 36.5608C161.438 36.5608 162.289 35.9051 162.289 34.9643V31.6122C162.289 31.3262 162.521 31.0946 162.807 31.0946C163.093 31.0946 163.324 31.3262 163.324 31.6122V34.9643C163.324 36.5385 161.954 37.596 160.675 37.596Z" fill="#010101"/>
</svg>
