<svg width="195" height="45" viewBox="0 0 195 45" fill="none" xmlns="http://www.w3.org/2000/svg">
<path d="M4.76692 45C2.13853 45 0 42.7652 0 40.0185V4.98149C0 2.2348 2.13853 0 4.76692 0H190.234C192.862 0 195 2.2348 195 4.98149V40.0185C195 42.7652 192.862 45 190.234 45H4.76692Z" fill="#E6E7E8"/>
<path d="M189.957 43H5.04313C3.36219 43 2 41.5862 2 39.8425V5.15753C2 3.4134 3.36262 2 5.04313 2H189.957C191.638 2 193 3.41384 193 5.15753V39.842C193 41.5862 191.638 43 189.957 43Z" stroke="#414042" stroke-miterlimit="10"/>
<g clip-path="url(#clip0_124_108)">
<path d="M8 8.00024H27V17.7317H8V8.00024Z" fill="#CE1720"/>
<mask id="mask0_124_108" style="mask-type:luminance" maskUnits="userSpaceOnUse" x="8" y="8" width="3" height="10">
<path d="M8.10059 8.00024H10.2117V14.5744H10.2961V17.6452L10.2117 17.7317H8.10059V8.00024Z" fill="white"/>
</mask>
<g mask="url(#mask0_124_108)">
<path d="M8.48056 8.00049V8.15187H8.38556V8.30325H8.26945V8.47625H8.185V8.61682H8.01611V8.25999H8.185V8.06536H8.01611V8.00049H8.48056ZM8.755 8.83307V8.99526H8.67056V9.12502H8.58611V8.99526H8.50167V8.83307H8.41722V8.61682H8.50167V8.45462H8.58611V8.32487H8.67056V8.45462H8.755V8.61682H8.83945V8.83307H8.755ZM8.57556 8.82226H8.68111V8.62763H8.57556V8.82226ZM8.30111 9.97922H8.38556V9.78459H8.30111V9.97922ZM8.87111 9.97922H8.95556V9.78459H8.87111V9.97922ZM8.01611 11.2984H8.16389V11.4389H8.22722V11.6119H8.32222V11.7741H8.44889V11.6119H8.54389V11.4389H8.62834V11.2984H8.50167V11.1362H8.72334V11.2443H8.86056V11.4281H8.97667V11.6336H8.89222V11.785H8.81834V11.9255H8.755V12.0769H8.66V12.2067H8.58611V12.3256H8.49111V12.477H8.35389V12.3148H8.25889V12.1634H8.185V12.0661H8.01611V11.8174H8.185V11.6011H8.01611V11.2984Z" fill="white"/>
<path d="M9.8317 8.00073V8.15211H9.9267V8.30349H10.0428V8.47649H10.1273V8.61706H10.2961V8.26024H10.1273V8.06561H10.2961V8.00073H9.8317ZM9.55725 8.83331V8.99551H9.6417V9.12526H9.72614V8.99551H9.81059V8.83331H9.89503V8.61706H9.81059V8.45487H9.72614V8.32512H9.6417V8.45487H9.55725V8.61706H9.47281V8.83331H9.55725ZM9.7367 8.8225H9.63114V8.62787H9.7367V8.8225ZM10.0111 9.97947H9.9267V9.78484H10.0111V9.97947ZM9.44114 9.97947H9.3567V9.78484H9.44114V9.97947ZM10.2961 11.2986H10.1484V11.4392H10.085V11.6122H9.99003V11.7744H9.86336V11.6122H9.76836V11.4392H9.68392V11.2986H9.81059V11.1364H9.58892V11.2446H9.4517V11.4284H9.33559V11.6338H9.42003V11.7852H9.49392V11.9258H9.55725V12.0771H9.65225V12.2069H9.72614V12.3258H9.82114V12.4772H9.95836V12.315H10.0534V12.1636H10.1273V12.0663H10.2961V11.8176H10.1273V11.6014H10.2961V11.2986Z" fill="white"/>
<path d="M9.11389 8.00049V8.3465H9.19834V8.00049H9.53611V8.15187H9.45167V8.30325H9.325V8.47625H9.24056V8.61682H9.07167V8.47625H8.98722V8.30325H8.86056V8.15187H8.77611V8.00049H9.11389ZM9.09278 10.9632V10.8442H9.02945V10.7037H8.95556V10.5523H8.87111V10.4009H8.78667V10.2928H8.69167V10.1414H8.565V10.2928H8.47V10.4009H8.39611V10.5523H8.31167V10.7037H8.24834V10.8442H8.185V11.0281H8.01611V10.5523H8.185V10.336H8.01611V9.97922H8.185V10.1306H8.29056V10.282H8.39611V10.1306H8.50167V9.97922H8.58611V9.78459H8.50167V9.63322H8.39611V9.48184H8.29056V9.63322H8.185V9.78459H8.01611V9.34127H8.185V9.13583H8.01611V8.83307H8.185V8.97364H8.26945V9.14664H8.38556V9.28721H8.48056V9.4494H8.55445V9.57915H8.70222V9.4494H8.77611V9.28721H8.87111V9.14664H8.98722V8.97364H9.07167V8.83307H9.24056V8.97364H9.325V9.14664H9.44111V9.28721H9.53611V9.4494H9.61V9.57915H9.75778V9.4494H9.83167V9.28721H9.92667V9.14664H10.0428V8.97364H10.1272V8.83307H10.2961V9.13583H10.1272V9.34127H10.2961V9.78459H10.1272V9.63322H10.0217V9.48184H9.91611V9.63322H9.81056V9.78459H9.72611V9.97922H9.81056V10.1306H9.91611V10.282H10.0217V10.1306H10.1272V9.97922H10.2961V10.336H10.1272V10.5523H10.2961V11.0281H10.1272V10.8442H10.0639V10.7037H10.0006V10.5523H9.91611V10.4009H9.84222V10.2928H9.74722V10.1414H9.62056V10.2928H9.52556V10.4009H9.44111V10.5523H9.35667V10.7037H9.28278V10.8442H9.21945V10.9632H9.09278ZM9.11389 9.15745V9.4494H9.19834V9.15745H9.11389ZM9.07167 9.78459V9.63322H8.96611V9.48184H8.86056V9.63322H8.755V9.78459H8.67056V9.97922H8.755V10.1306H8.86056V10.282H8.96611V10.1306H9.07167V9.97922H9.24056V10.1306H9.34611V10.282H9.45167V10.1306H9.55722V9.97922H9.64167V9.78459H9.55722V9.63322H9.45167V9.48184H9.34611V9.63322H9.24056V9.78459H9.07167ZM9.11389 10.282V10.5739H9.19834V10.282H9.11389Z" fill="white"/>
<path d="M8.48056 17.7327V17.5813H8.38556V17.4299H8.26945V17.2569H8.185V17.1163H8.01611V17.4732H8.185V17.6678H8.01611V17.7327H8.48056ZM8.755 16.9001V16.7379H8.67056V16.6081H8.58611V16.7379H8.50167V16.9001H8.41722V17.1163H8.50167V17.2785H8.58611V17.4083H8.67056V17.2785H8.755V17.1163H8.83945V16.9001H8.755ZM8.57556 16.9109H8.68111V17.1055H8.57556V16.9109ZM8.30111 15.7539H8.38556V15.9486H8.30111V15.7539ZM8.87111 15.7539H8.95556V15.9486H8.87111V15.7539ZM8.01611 14.4348H8.16389V14.2942H8.22722V14.1212H8.32222V13.959H8.44889V14.1212H8.54389V14.2942H8.62834V14.4348H8.50167V14.597H8.72334V14.4888H8.86056V14.305H8.97667V14.0996H8.89222V13.9482H8.81834V13.8076H8.755V13.6563H8.66V13.5265H8.58611V13.4076H8.49111V13.2562H8.35389V13.4184H8.25889V13.5698H8.185V13.6671H8.01611V13.9158H8.185V14.132H8.01611V14.4348Z" fill="white"/>
<path d="M9.8317 17.7329V17.5815H9.9267V17.4302H10.0428V17.2571H10.1273V17.1166H10.2961V17.4734H10.1273V17.668H10.2961V17.7329H9.8317ZM9.55725 16.9003V16.7381H9.6417V16.6084H9.72614V16.7381H9.81059V16.9003H9.89503V17.1166H9.81059V17.2788H9.72614V17.4085H9.6417V17.2788H9.55725V17.1166H9.47281V16.9003H9.55725ZM9.7367 16.9111H9.63114V17.1058H9.7367V16.9111ZM10.0111 15.7542H9.9267V15.9488H10.0111V15.7542ZM9.44114 15.7542H9.3567V15.9488H9.44114V15.7542ZM10.2961 14.435H10.1484V14.2945H10.085V14.1214H9.99003V13.9593H9.86336V14.1214H9.76836V14.2945H9.68392V14.435H9.81059V14.5972H9.58892V14.4891H9.4517V14.3053H9.33559V14.0998H9.42003V13.9484H9.49392V13.8079H9.55725V13.6565H9.65225V13.5267H9.72614V13.4078H9.82114V13.2564H9.95836V13.4186H10.0534V13.57H10.1273V13.6673H10.2961V13.916H10.1273V14.1323H10.2961V14.435Z" fill="white"/>
<path d="M9.11389 17.7327V17.3867H9.19834V17.7327H9.53611V17.5813H9.45167V17.4299H9.325V17.2569H9.24056V17.1163H9.07167V17.2569H8.98722V17.4299H8.86056V17.5813H8.77611V17.7327H9.11389ZM9.09278 14.77V14.8889H9.02945V15.0295H8.95556V15.1809H8.87111V15.3322H8.78667V15.4404H8.69167V15.5917H8.565V15.4404H8.47V15.3322H8.39611V15.1809H8.31167V15.0295H8.24834V14.8889H8.185V14.7051H8.01611V15.1809H8.185V15.3971H8.01611V15.7539H8.185V15.6026H8.29056V15.4512H8.39611V15.6026H8.50167V15.7539H8.58611V15.9486H8.50167V16.0999H8.39611V16.2513H8.29056V16.0999H8.185V15.9486H8.01611V16.3919H8.185V16.5973H8.01611V16.9001H8.185V16.7595H8.26945V16.5865H8.38556V16.4459H8.48056V16.2838H8.55445V16.154H8.70222V16.2838H8.77611V16.4459H8.87111V16.5865H8.98722V16.7595H9.07167V16.9001H9.24056V16.7595H9.325V16.5865H9.44111V16.4459H9.53611V16.2838H9.61V16.154H9.75778V16.2838H9.83167V16.4459H9.92667V16.5865H10.0428V16.7595H10.1272V16.9001H10.2961V16.5973H10.1272V16.3919H10.2961V15.9486H10.1272V16.0999H10.0217V16.2513H9.91611V16.0999H9.81056V15.9486H9.72611V15.7539H9.81056V15.6026H9.91611V15.4512H10.0217V15.6026H10.1272V15.7539H10.2961V15.3971H10.1272V15.1809H10.2961V14.7051H10.1272V14.8889H10.0639V15.0295H10.0006V15.1809H9.91611V15.3322H9.84222V15.4404H9.74722V15.5917H9.62056V15.4404H9.52556V15.3322H9.44111V15.1809H9.35667V15.0295H9.28278V14.8889H9.21945V14.77H9.09278ZM9.11389 16.5757V16.2838H9.19834V16.5757H9.11389ZM9.07167 15.9486V16.0999H8.96611V16.2513H8.86056V16.0999H8.755V15.9486H8.67056V15.7539H8.755V15.6026H8.86056V15.4512H8.96611V15.6026H9.07167V15.7539H9.24056V15.6026H9.34611V15.4512H9.45167V15.6026H9.55722V15.7539H9.64167V15.9486H9.55722V16.0999H9.45167V16.2513H9.34611V16.0999H9.24056V15.9486H9.07167ZM9.11389 15.4512V15.1592H9.19834V15.4512H9.11389Z" fill="white"/>
<path d="M8.01611 12.4123H8.185V12.5636H8.25889V12.6501H8.34334V12.8014H8.41722V12.9311H8.34334V13.0824H8.25889V13.1688H8.185V13.3202H8.01611V12.4123ZM10.2961 12.4123V13.3202H10.1272V13.1688H10.0533V13.0824H9.96889V12.9311H9.895V12.8014H9.96889V12.6501H10.0533V12.5636H10.1272V12.4123H10.2961ZM8.755 12.9635H8.83945V12.769H8.755V12.9635ZM9.55722 12.9635V12.769H9.47278V12.9635H9.55722ZM9.11389 12.3258H9.19834V12.1313H9.11389V12.3258ZM9.11389 13.4066V13.6012H9.19834V13.4066H9.11389ZM8.58611 12.596H8.73389V12.4771H8.83945V12.3691H8.89222V12.261H8.95556V12.1097H9.04V11.9584H9.08222V11.8179H9.23V11.9584H9.27222V12.1097H9.35667V12.261H9.42V12.3691H9.47278V12.4771H9.57834V12.596H9.72611V13.1364H9.57834V13.2553H9.47278V13.3634H9.42V13.4715H9.35667V13.6228H9.27222V13.7741H9.23V13.9146H9.08222V13.7741H9.04V13.6228H8.95556V13.4715H8.89222V13.3634H8.83945V13.2553H8.73389V13.1364H8.58611V12.596ZM9.11389 12.6933V12.5312H9.02945V12.4231H8.945V12.6933H9.02945V12.7906H9.08222V12.9419H9.02945V13.0392H8.945V13.3093H9.02945V13.2013H9.11389V13.0392H9.19834V13.2013H9.28278V13.3093H9.36722V13.0392H9.28278V12.9419H9.23V12.7906H9.28278V12.6933H9.36722V12.4231H9.28278V12.5312H9.19834V12.6933H9.11389Z" fill="white"/>
</g>
<path d="M10.2117 14.4878H27V17.7316H10.2117V14.4878Z" fill="#007C30"/>
</g>
<path d="M12.6419 31.1361C13.1653 31.3345 13.5692 31.6671 13.8536 32.1339C14.138 32.589 14.2802 33.1375 14.2802 33.7794V34.1295C14.2802 35.0164 14.0129 35.7166 13.4781 36.23C12.9434 36.7435 12.2039 37.0002 11.2596 37.0002H8V25.5171H11.0719C12.0275 25.5171 12.7671 25.7622 13.2904 26.2523C13.8251 26.7308 14.0925 27.4134 14.0925 28.3004V28.6504C14.0925 29.2573 13.9674 29.7708 13.7171 30.1909C13.4668 30.611 13.1084 30.9261 12.6419 31.1361ZM9.21168 26.6549V30.611H10.9695C11.5838 30.611 12.056 30.4534 12.3859 30.1384C12.7159 29.8116 12.8808 29.3506 12.8808 28.7555V28.4404C12.8808 27.2501 12.2323 26.6549 10.9353 26.6549H9.21168ZM13.0515 33.6568C13.0515 33.05 12.8808 32.5774 12.5395 32.2389C12.2096 31.9005 11.7431 31.7313 11.1401 31.7313H9.21168V35.8624H11.1231C11.7488 35.8624 12.2266 35.7049 12.5566 35.3898C12.8865 35.063 13.0515 34.5962 13.0515 33.9894V33.6568Z" fill="#010101"/>
<path d="M22.06 25.7096L19.2271 32.1689V37.0002H17.9983V32.1689L15.1654 25.7096V25.5171H16.3429L18.6127 30.681L20.8825 25.5171H22.06V25.7096Z" fill="#010101"/>
<defs>
<clipPath id="clip0_124_108">
<rect width="19" height="9.73148" fill="white" transform="translate(8 8)"/>
</clipPath>
</defs>
</svg>
