<svg width="165" height="45" viewBox="0 0 165 45" fill="none" xmlns="http://www.w3.org/2000/svg">
<path d="M4.03354 45C1.80953 45 0 42.7652 0 40.0185V4.98149C0 2.2348 1.80953 0 4.03354 0H160.967C163.191 0 165 2.2348 165 4.98149V40.0185C165 42.7652 163.191 45 160.967 45H4.03354Z" fill="#E6E7E8"/>
<path d="M2 5C2 3.34315 3.34315 2 5 2H160C161.657 2 163 3.34315 163 5V12H2V5Z" fill="#0F4AC2"/>
<path d="M73.618 6.669C73.8047 6.76233 73.947 6.893 74.045 7.061C74.1477 7.229 74.199 7.42967 74.199 7.663V7.803C74.199 8.17633 74.0777 8.47033 73.835 8.685C73.597 8.895 73.268 9 72.848 9H71.308V4.408H72.771C73.191 4.408 73.5177 4.51067 73.751 4.716C73.989 4.92133 74.108 5.20833 74.108 5.577V5.717C74.108 5.93167 74.066 6.12067 73.982 6.284C73.898 6.44733 73.7767 6.57567 73.618 6.669ZM72.246 5.248V6.277H72.666C73.002 6.277 73.17 6.123 73.17 5.815V5.689C73.17 5.395 72.9997 5.248 72.659 5.248H72.246ZM73.254 7.572C73.254 7.42267 73.2097 7.30833 73.121 7.229C73.0323 7.145 72.9063 7.103 72.743 7.103H72.246V8.16H72.736C73.0813 8.16 73.254 8.006 73.254 7.698V7.572ZM78.3248 8.86V9H77.3938L76.5328 7.236H76.3298V9H75.3918V4.408H76.8828C77.3448 4.408 77.6971 4.52467 77.9398 4.758C78.1825 4.98667 78.3038 5.32267 78.3038 5.766V5.906C78.3038 6.578 78.0238 6.99567 77.4638 7.159L78.3248 8.86ZM76.3298 6.41H76.8128C76.9948 6.41 77.1325 6.37033 77.2258 6.291C77.3191 6.21167 77.3658 6.08333 77.3658 5.906V5.766C77.3658 5.43 77.1815 5.262 76.8128 5.262H76.3298V6.41ZM82.5971 8.86V9H81.6311L81.4631 8.195H80.4061L80.2381 9H79.2791V8.86L80.3851 4.408H81.4981L82.5971 8.86ZM81.2951 7.39L80.9381 5.696L80.5811 7.39H81.2951ZM84.7788 9.084C84.3168 9.084 83.9645 8.96267 83.7218 8.72C83.4838 8.47733 83.3648 8.125 83.3648 7.663V7.453H84.2608V7.663C84.2608 7.85433 84.3028 7.999 84.3868 8.097C84.4755 8.195 84.6062 8.244 84.7788 8.244C84.9422 8.244 85.0682 8.20433 85.1568 8.125C85.2455 8.04567 85.2898 7.93367 85.2898 7.789V7.719C85.2898 7.58833 85.2525 7.47633 85.1778 7.383C85.1032 7.28967 84.9795 7.20567 84.8068 7.131L84.3798 6.942C84.0532 6.79733 83.8082 6.62467 83.6448 6.424C83.4862 6.21867 83.4068 5.97833 83.4068 5.703V5.563C83.4068 5.185 83.5328 4.884 83.7848 4.66C84.0368 4.436 84.3775 4.324 84.8068 4.324C85.2362 4.324 85.5698 4.436 85.8078 4.66C86.0458 4.884 86.1648 5.199 86.1648 5.605V5.808H85.2688V5.605C85.2688 5.297 85.1125 5.143 84.7998 5.143C84.6505 5.143 84.5338 5.178 84.4498 5.248C84.3658 5.318 84.3238 5.416 84.3238 5.542V5.612C84.3238 5.724 84.3565 5.822 84.4218 5.906C84.4918 5.98533 84.6155 6.06467 84.7928 6.144L85.2338 6.34C85.5745 6.48467 85.8242 6.662 85.9828 6.872C86.1462 7.082 86.2278 7.33633 86.2278 7.635V7.775C86.2278 8.181 86.0995 8.50067 85.8428 8.734C85.5862 8.96733 85.2315 9.084 84.7788 9.084ZM88.3349 4.408V9H87.3969V4.408H88.3349ZM90.58 4.408V8.146H92.176V9H89.642V4.408H90.58Z" fill="white"/>
<path d="M160.435 43H4.56515C3.14823 43 2 41.5862 2 39.8425V5.15753C2 3.4134 3.14859 2 4.56515 2H160.435C161.852 2 163 3.41384 163 5.15753V39.842C163 41.5862 161.852 43 160.435 43Z" stroke="#414042" stroke-miterlimit="10"/>
<path d="M10.285 34.003C10.537 34.123 10.729 34.294 10.861 34.516C10.993 34.732 11.059 34.993 11.059 35.299V35.479C11.059 35.953 10.909 36.325 10.609 36.595C10.309 36.865 9.895 37 9.367 37H7.459V31.096H9.268C9.796 31.096 10.207 31.228 10.501 31.492C10.801 31.75 10.951 32.113 10.951 32.581V32.761C10.951 33.337 10.729 33.751 10.285 34.003ZM8.503 32.041V33.553H9.151C9.655 33.553 9.907 33.322 9.907 32.86V32.698C9.907 32.476 9.844 32.311 9.718 32.203C9.592 32.095 9.4 32.041 9.142 32.041H8.503ZM10.015 35.2C10.015 34.972 9.949 34.798 9.817 34.678C9.685 34.552 9.496 34.489 9.25 34.489H8.503V36.055H9.241C9.757 36.055 10.015 35.824 10.015 35.362V35.2ZM16.3726 36.847V37H15.3376L14.1316 34.651H13.7536V37H12.7096V31.096H14.5906C15.1606 31.096 15.5956 31.243 15.8956 31.537C16.2016 31.825 16.3546 32.242 16.3546 32.788V32.968C16.3546 33.412 16.2556 33.772 16.0576 34.048C15.8656 34.318 15.5806 34.498 15.2026 34.588L16.3726 36.847ZM13.7536 33.715H14.5096C14.7676 33.715 14.9656 33.658 15.1036 33.544C15.2416 33.424 15.3106 33.232 15.3106 32.968V32.788C15.3106 32.296 15.0436 32.05 14.5096 32.05H13.7536V33.715Z" fill="#010101"/>
<rect x="149" y="4" width="10" height="7" rx="0.966814" fill="#039740"/>
<path d="M153.906 5.02755L150.086 7.3463C149.971 7.41761 149.971 7.58401 150.086 7.65532L153.906 9.97407C153.964 10.0086 154.036 10.0086 154.094 9.97407L157.914 7.65532C158.029 7.58401 158.029 7.41761 157.914 7.3463L154.094 5.02755C154.036 4.99082 153.962 4.99082 153.906 5.02755Z" fill="#FBC607"/>
<path d="M155.448 7.45189C155.474 8.2882 154.79 8.97107 153.951 8.94514C153.193 8.92137 152.575 8.30333 152.551 7.54914C152.525 6.71283 153.21 6.02996 154.049 6.05589C154.805 6.07966 155.424 6.69555 155.448 7.45189Z" fill="#301E83"/>
<path d="M152.755 6.76065C152.688 6.87518 152.634 6.99836 152.599 7.13018C153.403 7.06967 154.59 7.29441 155.346 8.02699C155.394 7.90165 155.429 7.76767 155.442 7.62721C154.662 6.97027 153.581 6.73904 152.755 6.76065Z" fill="#F5F5F5"/>
<path d="M154.06 7.99441L154.099 8.10894L154.22 8.11111C154.235 8.11111 154.242 8.13271 154.229 8.1392L154.129 8.21051L154.166 8.3272C154.17 8.34233 154.153 8.3553 154.14 8.34449L154.04 8.27318L153.941 8.34449C153.928 8.35314 153.91 8.34233 153.915 8.3272L153.951 8.21051L153.852 8.1392C153.839 8.13055 153.845 8.11111 153.86 8.11111L153.982 8.10894L154.021 7.99441C154.034 7.97712 154.055 7.97712 154.06 7.99441Z" fill="#F5F5F5"/>
<path d="M154.532 8.29213L154.549 8.34183H154.601C154.608 8.34183 154.61 8.35047 154.605 8.3548L154.564 8.38505L154.579 8.43475C154.582 8.44124 154.573 8.44772 154.569 8.4434L154.525 8.41314L154.482 8.4434C154.475 8.44772 154.469 8.44124 154.471 8.43475L154.486 8.38505L154.445 8.3548C154.439 8.35047 154.443 8.34183 154.449 8.34183H154.501L154.519 8.29213C154.521 8.28348 154.532 8.28348 154.532 8.29213Z" fill="#F5F5F5"/>
<path d="M153.854 7.77391L153.871 7.82361H153.923C153.929 7.82361 153.932 7.83225 153.927 7.83657L153.886 7.86683L153.901 7.91653C153.903 7.92301 153.895 7.9295 153.89 7.92517L153.847 7.89492L153.804 7.92517C153.797 7.9295 153.791 7.92301 153.793 7.91653L153.808 7.86683L153.767 7.83657C153.76 7.83225 153.765 7.82361 153.771 7.82361H153.823L153.841 7.77391C153.843 7.76742 153.854 7.76742 153.854 7.77391Z" fill="#F5F5F5"/>
<path d="M152.935 7.71336L152.952 7.76306H153.004C153.011 7.76306 153.013 7.77171 153.009 7.77603L152.968 7.80628L152.983 7.85598C152.985 7.86247 152.976 7.86895 152.972 7.86463L152.929 7.83437L152.885 7.86463C152.879 7.86895 152.872 7.86247 152.874 7.85598L152.89 7.80628L152.848 7.77603C152.842 7.77171 152.846 7.76306 152.853 7.76306H152.905L152.922 7.71336C152.924 7.70688 152.933 7.70688 152.935 7.71336Z" fill="#F5F5F5"/>
<path d="M153.704 8.27326L153.721 8.32296H153.773C153.78 8.32296 153.782 8.33161 153.778 8.33593L153.737 8.36618L153.752 8.41589C153.754 8.42237 153.745 8.42885 153.741 8.42453L153.698 8.39428L153.654 8.42453C153.648 8.42885 153.641 8.42237 153.643 8.41589L153.659 8.36618L153.617 8.33593C153.611 8.33161 153.615 8.32296 153.622 8.32296H153.674L153.691 8.27326C153.693 8.26894 153.702 8.26894 153.704 8.27326Z" fill="#F5F5F5"/>
<path d="M153.282 7.67918L153.295 7.72024H153.338C153.345 7.72024 153.347 7.72672 153.34 7.73104L153.306 7.75697L153.319 7.79803C153.321 7.80452 153.314 7.80668 153.31 7.80452L153.275 7.77858L153.241 7.80452C153.236 7.80668 153.23 7.80236 153.232 7.79803L153.245 7.75697L153.21 7.73104C153.206 7.72888 153.208 7.7224 153.213 7.72024H153.256L153.269 7.67918C153.271 7.6727 153.28 7.6727 153.282 7.67918Z" fill="#F5F5F5"/>
<path d="M154.571 6.83982L154.588 6.89169H154.642C154.649 6.89169 154.651 6.90033 154.646 6.90465L154.603 6.93707L154.62 6.98893C154.623 6.99541 154.614 7.0019 154.61 6.99758L154.566 6.96732L154.523 6.99758C154.516 7.0019 154.51 6.99541 154.512 6.98893L154.529 6.93707L154.486 6.90465C154.48 6.90033 154.484 6.89169 154.49 6.89169H154.545L154.562 6.83982C154.56 6.83334 154.568 6.83334 154.571 6.83982Z" fill="#F5F5F5"/>
<path d="M152.993 7.43016L153.006 7.47121H153.05C153.056 7.47121 153.058 7.4777 153.052 7.48202L153.017 7.50795L153.03 7.54901C153.032 7.55549 153.026 7.55765 153.021 7.55549L152.987 7.52956L152.952 7.55549C152.948 7.55765 152.941 7.55333 152.943 7.54901L152.956 7.50795L152.922 7.48202C152.917 7.47986 152.92 7.47337 152.924 7.47121H152.967L152.98 7.43016C152.985 7.42367 152.991 7.42367 152.993 7.43016Z" fill="#F5F5F5"/>
<path d="M153.202 8.00307L153.223 8.06357H153.288C153.297 8.06357 153.301 8.07438 153.295 8.0787L153.243 8.1176L153.262 8.18027C153.264 8.18891 153.256 8.19539 153.249 8.18891L153.197 8.15217L153.145 8.18891C153.139 8.19539 153.13 8.18675 153.132 8.18027L153.152 8.1176L153.1 8.0787C153.093 8.07222 153.098 8.06357 153.106 8.06357H153.171L153.193 8.00307C153.189 7.99442 153.199 7.99442 153.202 8.00307Z" fill="#F5F5F5"/>
<path d="M154.796 8.30353L154.809 8.34243H154.85C154.857 8.34243 154.857 8.34892 154.852 8.35108L154.82 8.37485L154.833 8.41375C154.835 8.42023 154.828 8.42239 154.824 8.42023L154.792 8.39646L154.759 8.42023C154.755 8.42239 154.75 8.41807 154.75 8.41375L154.763 8.37485L154.731 8.35108C154.727 8.34892 154.729 8.34243 154.733 8.34243H154.774L154.787 8.30353C154.789 8.29921 154.796 8.29921 154.796 8.30353Z" fill="#F5F5F5"/>
<path d="M154.941 8.00975L154.959 8.05945H155.011C155.017 8.05945 155.019 8.06809 155.015 8.07241L154.974 8.10267L154.989 8.15237C154.991 8.15885 154.983 8.16534 154.978 8.16101L154.935 8.13076L154.892 8.16101C154.885 8.16534 154.879 8.15885 154.881 8.15237L154.896 8.10267L154.855 8.07241C154.848 8.06809 154.853 8.05945 154.859 8.05945H154.911L154.928 8.00975C154.928 8.00326 154.939 8.00326 154.941 8.00975Z" fill="#F5F5F5"/>
</svg>
